<?xml version="1.0" encoding="UTF-8" standalone="no"?>
<!-- Created with Inkscape (http://www.inkscape.org/) -->

<svg
   xmlns:dc="http://purl.org/dc/elements/1.1/"
   xmlns:cc="http://creativecommons.org/ns#"
   xmlns:rdf="http://www.w3.org/1999/02/22-rdf-syntax-ns#"
   xmlns:svg="http://www.w3.org/2000/svg"
   xmlns="http://www.w3.org/2000/svg"
   xmlns:sodipodi="http://sodipodi.sourceforge.net/DTD/sodipodi-0.dtd"
   xmlns:inkscape="http://www.inkscape.org/namespaces/inkscape"
   width="210mm"
   height="120mm"
   viewBox="0 0 210 120"
   version="1.1"
   id="svg4707"
   inkscape:version="0.92.1 r15371"
   sodipodi:docname="BadKey.svg">
  <defs
     id="defs4701" />
  <sodipodi:namedview
     id="base"
     pagecolor="#eb4923"
     bordercolor="#666666"
     borderopacity="1.0"
     inkscape:pageopacity="0"
     inkscape:pageshadow="2"
     inkscape:zoom="0.49497475"
     inkscape:cx="109.45367"
     inkscape:cy="221.44723"
     inkscape:document-units="mm"
     inkscape:current-layer="layer1"
     showgrid="false"
     inkscape:window-width="1366"
     inkscape:window-height="715"
     inkscape:window-x="-8"
     inkscape:window-y="-8"
     inkscape:window-maximized="1" />
  <metadata
     id="metadata4704">
    <rdf:RDF>
      <cc:Work
         rdf:about="">
        <dc:format>image/svg+xml</dc:format>
        <dc:type
           rdf:resource="http://purl.org/dc/dcmitype/StillImage" />
        <dc:title></dc:title>
      </cc:Work>
    </rdf:RDF>
  </metadata>
  <g
     inkscape:label="Layer 1"
     inkscape:groupmode="layer"
     id="layer1"
     transform="translate(0,-177)">
    <g
       aria-label="UH OH"
       transform="matrix(0.26458333,0,0,0.26458333,0.44333416,195.14286)"
       style="font-style:normal;font-weight:normal;font-size:40px;line-height:1.25;font-family:sans-serif;text-align:center;letter-spacing:0px;word-spacing:0px;text-anchor:middle;fill:#ffffff;fill-opacity:1;stroke:none"
       id="flowRoot5252">
      <path
         d="m 295.63574,167.38059 q 0,7.59375 -1.6875,13.26562 -1.64062,5.625 -5.4375,9.375 -3.60937,3.5625 -8.4375,5.20313 -4.82812,1.64062 -11.25,1.64062 -6.5625,0 -11.4375,-1.73437 -4.875,-1.73438 -8.20312,-5.10938 -3.79688,-3.84375 -5.48438,-9.28125 -1.64062,-5.4375 -1.64062,-13.35937 v -41.76563 h 9.28125 v 42.23438 q 0,5.67187 0.75,8.95312 0.79687,3.28125 2.625,5.95313 2.0625,3.04687 5.57812,4.59375 3.5625,1.54687 8.53125,1.54687 5.01563,0 8.53125,-1.5 3.51563,-1.54687 5.625,-4.64062 1.82813,-2.67188 2.57813,-6.09375 0.79687,-3.46875 0.79687,-8.57813 v -42.46875 h 9.28125 z"
         style="font-size:96px;text-align:center;text-anchor:middle;fill:#ffffff;fill-opacity:1"
         id="path5363"
         inkscape:connector-curvature="0" />
      <path
         d="m 366.79199,195.41184 h -9.28125 v -34.17188 h -34.82812 v 34.17188 h -9.28125 v -69.79688 h 9.28125 v 27.375 h 34.82812 v -27.375 h 9.28125 z"
         style="font-size:96px;text-align:center;text-anchor:middle;fill:#ffffff;fill-opacity:1"
         id="path5365"
         inkscape:connector-curvature="0" />
      <path
         d="m 471.37012,133.63059 q 4.26562,4.6875 6.51562,11.48437 2.29688,6.79688 2.29688,15.42188 0,8.625 -2.34375,15.46875 -2.29688,6.79687 -6.46875,11.34375 -4.3125,4.73437 -10.21875,7.125 -5.85938,2.39062 -13.40625,2.39062 -7.35938,0 -13.40625,-2.4375 -6,-2.4375 -10.21875,-7.07812 -4.21875,-4.64063 -6.51563,-11.39063 -2.25,-6.75 -2.25,-15.42187 0,-8.53125 2.25,-15.28125 2.25,-6.79688 6.5625,-11.625 4.125,-4.59375 10.21875,-7.03125 6.14063,-2.4375 13.35938,-2.4375 7.5,0 13.45312,2.48437 6,2.4375 10.17188,6.98438 z m -0.84375,26.90625 q 0,-13.59375 -6.09375,-20.95313 -6.09375,-7.40625 -16.64063,-7.40625 -10.64062,0 -16.73437,7.40625 -6.04688,7.35938 -6.04688,20.95313 0,13.73437 6.1875,21.04687 6.1875,7.26563 16.59375,7.26563 10.40625,0 16.54688,-7.26563 6.1875,-7.3125 6.1875,-21.04687 z"
         style="font-size:96px;text-align:center;text-anchor:middle;fill:#ffffff;fill-opacity:1"
         id="path5367"
         inkscape:connector-curvature="0" />
      <path
         d="m 548.29199,195.41184 h -9.28125 v -34.17188 h -34.82812 v 34.17188 h -9.28125 v -69.79688 h 9.28125 v 27.375 h 34.82812 v -27.375 h 9.28125 z"
         style="font-size:96px;text-align:center;text-anchor:middle;fill:#ffffff;fill-opacity:1"
         id="path5369"
         inkscape:connector-curvature="0" />
    </g>
    <g
       aria-label="We don't recognize this key...
You should try that again!"
       style="font-style:normal;font-weight:normal;font-size:10.58333302px;line-height:1.25;font-family:sans-serif;letter-spacing:0px;word-spacing:0px;fill:#ffffff;fill-opacity:1;stroke:none;stroke-width:0.26458332"
       id="text5262"
       transform="translate(-78.3428,-3.0238098)">
      <path
         d="m 115.15575,259.06728 -1.99988,7.69462 h -1.15238 l -1.61748,-6.3872 -1.58129,6.3872 h -1.12655 l -2.03605,-7.69462 h 1.04903 l 1.61747,6.39754 1.59164,-6.39754 h 1.03869 l 1.60714,6.45956 1.60714,-6.45956 z"
         style="text-align:center;text-anchor:middle;fill:#ffffff;fill-opacity:1;stroke-width:0.26458332"
         id="path5266"
         inkscape:connector-curvature="0" />
      <path
         d="m 120.897,263.97654 h -4.25297 q 0,0.53227 0.1602,0.93018 0.16019,0.39274 0.43925,0.64595 0.26871,0.24805 0.63562,0.37207 0.37207,0.12403 0.81648,0.12403 0.58911,0 1.18339,-0.23255 0.59945,-0.23771 0.85267,-0.46508 h 0.0517 v 1.05936 q -0.49092,0.20671 -1.00252,0.34623 -0.5116,0.13953 -1.07487,0.13953 -1.43661,0 -2.24276,-0.77515 -0.80615,-0.78031 -0.80615,-2.21175 0,-1.41593 0.76998,-2.24792 0.77514,-0.83199 2.03605,-0.83199 1.16789,0 1.79834,0.68213 0.63562,0.68213 0.63562,1.93786 z m -0.94568,-0.74414 q -0.005,-0.76481 -0.38757,-1.18339 -0.37724,-0.41858 -1.15239,-0.41858 -0.78031,0 -1.2454,0.45992 -0.45992,0.45992 -0.52193,1.14205 z"
         style="text-align:center;text-anchor:middle;fill:#ffffff;fill-opacity:1;stroke-width:0.26458332"
         id="path5268"
         inkscape:connector-curvature="0" />
      <path
         d="m 130.77237,266.7619 h -0.97152 v -0.60461 q -0.41858,0.36173 -0.87333,0.56327 -0.45475,0.20154 -0.98702,0.20154 -1.03353,0 -1.64331,-0.79582 -0.60462,-0.79582 -0.60462,-2.20658 0,-0.73381 0.20671,-1.30742 0.21187,-0.5736 0.56844,-0.97668 0.3514,-0.39274 0.81649,-0.59945 0.47025,-0.2067 0.97151,-0.2067 0.45476,0 0.80616,0.0982 0.3514,0.093 0.73897,0.29456 v -2.50114 h 0.97152 z m -0.97152,-1.4211 v -3.31246 q -0.39274,-0.1757 -0.7028,-0.24288 -0.31006,-0.0672 -0.67696,-0.0672 -0.81649,0 -1.27124,0.56844 -0.45475,0.56844 -0.45475,1.61231 0,1.02836 0.3514,1.56579 0.3514,0.53227 1.12654,0.53227 0.41341,0 0.83716,-0.18087 0.42375,-0.18603 0.79065,-0.47542 z"
         style="text-align:center;text-anchor:middle;fill:#ffffff;fill-opacity:1;stroke-width:0.26458332"
         id="path5270"
         inkscape:connector-curvature="0" />
      <path
         d="m 137.60399,263.87836 q 0,1.41076 -0.72347,2.22725 -0.72347,0.81649 -1.93787,0.81649 -1.22473,0 -1.9482,-0.81649 -0.7183,-0.81649 -0.7183,-2.22725 0,-1.41077 0.7183,-2.22726 0.72347,-0.82165 1.9482,-0.82165 1.2144,0 1.93787,0.82165 0.72347,0.81649 0.72347,2.22726 z m -1.00252,0 q 0,-1.12138 -0.43925,-1.66398 -0.43925,-0.54777 -1.21957,-0.54777 -0.79065,0 -1.2299,0.54777 -0.43408,0.5426 -0.43408,1.66398 0,1.0852 0.43925,1.64848 0.43925,0.5581 1.22473,0.5581 0.77515,0 1.2144,-0.55294 0.44442,-0.5581 0.44442,-1.65364 z"
         style="text-align:center;text-anchor:middle;fill:#ffffff;fill-opacity:1;stroke-width:0.26458332"
         id="path5272"
         inkscape:connector-curvature="0" />
      <path
         d="M 143.93952,266.7619 H 142.968 v -3.28662 q 0,-0.39791 -0.0465,-0.74414 -0.0465,-0.3514 -0.17054,-0.54777 -0.12919,-0.21704 -0.37207,-0.32039 -0.24288,-0.10852 -0.63045,-0.10852 -0.39791,0 -0.83199,0.19637 -0.43408,0.19637 -0.83199,0.50126 v 4.30981 h -0.97152 v -5.77226 h 0.97152 v 0.64079 q 0.45475,-0.37724 0.94051,-0.58911 0.48576,-0.21187 0.99736,-0.21187 0.93534,0 1.42627,0.56327 0.49092,0.56327 0.49092,1.62264 z"
         style="text-align:center;text-anchor:middle;fill:#ffffff;fill-opacity:1;stroke-width:0.26458332"
         id="path5274"
         inkscape:connector-curvature="0" />
      <path
         d="m 146.8489,258.72105 -0.2222,2.99206 h -0.7028 l -0.22221,-2.99206 z"
         style="text-align:center;text-anchor:middle;fill:#ffffff;fill-opacity:1;stroke-width:0.26458332"
         id="path5276"
         inkscape:connector-curvature="0" />
      <path
         d="m 151.65998,266.71023 q -0.27388,0.0723 -0.59945,0.11885 -0.32039,0.0465 -0.5736,0.0465 -0.88367,0 -1.34359,-0.47542 -0.45992,-0.47543 -0.45992,-1.52446 v -3.06958 h -0.65629 v -0.81649 h 0.65629 v -1.65881 h 0.97151 v 1.65881 h 2.00505 v 0.81649 h -2.00505 v 2.63033 q 0,0.45476 0.0207,0.71314 0.0207,0.25321 0.14469,0.47542 0.11369,0.20671 0.31006,0.30489 0.20154,0.093 0.60978,0.093 0.23771,0 0.49609,-0.0672 0.25839,-0.0724 0.37207,-0.11886 h 0.0517 z"
         style="text-align:center;text-anchor:middle;fill:#ffffff;fill-opacity:1;stroke-width:0.26458332"
         id="path5278"
         inkscape:connector-curvature="0" />
      <path
         d="m 160.16075,262.04901 h -0.0517 q -0.21704,-0.0517 -0.42374,-0.0724 -0.20154,-0.0258 -0.48059,-0.0258 -0.44959,0 -0.86817,0.20153 -0.41858,0.19637 -0.80615,0.5116 v 4.09794 h -0.97152 v -5.77226 h 0.97152 v 0.85267 q 0.57878,-0.46509 1.01803,-0.6563 0.44441,-0.19637 0.90433,-0.19637 0.25322,0 0.36691,0.0155 0.11368,0.0103 0.34106,0.0465 z"
         style="text-align:center;text-anchor:middle;fill:#ffffff;fill-opacity:1;stroke-width:0.26458332"
         id="path5280"
         inkscape:connector-curvature="0" />
      <path
         d="m 165.91751,263.97654 h -4.25297 q 0,0.53227 0.16019,0.93018 0.1602,0.39274 0.43925,0.64595 0.26872,0.24805 0.63562,0.37207 0.37207,0.12403 0.81649,0.12403 0.58911,0 1.18339,-0.23255 0.59945,-0.23771 0.85266,-0.46508 h 0.0517 v 1.05936 q -0.49093,0.20671 -1.00253,0.34623 -0.51159,0.13953 -1.07487,0.13953 -1.4366,0 -2.24275,-0.77515 -0.80615,-0.78031 -0.80615,-2.21175 0,-1.41593 0.76997,-2.24792 0.77515,-0.83199 2.03606,-0.83199 1.16788,0 1.79834,0.68213 0.63562,0.68213 0.63562,1.93786 z m -0.94568,-0.74414 q -0.005,-0.76481 -0.38758,-1.18339 -0.37723,-0.41858 -1.15238,-0.41858 -0.78031,0 -1.2454,0.45992 -0.45992,0.45992 -0.52193,1.14205 z"
         style="text-align:center;text-anchor:middle;fill:#ffffff;fill-opacity:1;stroke-width:0.26458332"
         id="path5282"
         inkscape:connector-curvature="0" />
      <path
         d="m 171.65876,266.40017 q -0.48576,0.23254 -0.92501,0.36173 -0.43408,0.12919 -0.92501,0.12919 -0.62528,0 -1.14721,-0.18086 -0.52194,-0.18604 -0.89401,-0.55811 -0.37723,-0.37207 -0.58394,-0.94051 -0.2067,-0.56844 -0.2067,-1.32809 0,-1.41593 0.77514,-2.22208 0.78032,-0.80615 2.05672,-0.80615 0.4961,0 0.97152,0.13952 0.48059,0.13953 0.8785,0.34107 v 1.08003 h -0.0517 q -0.44441,-0.34623 -0.91984,-0.53226 -0.47025,-0.18604 -0.91984,-0.18604 -0.82682,0 -1.30741,0.55811 -0.47542,0.55293 -0.47542,1.6278 0,1.04387 0.46508,1.60714 0.47026,0.55811 1.31775,0.55811 0.29456,0 0.59945,-0.0775 0.30489,-0.0775 0.54777,-0.20154 0.21187,-0.10852 0.39791,-0.22737 0.18603,-0.12403 0.29455,-0.21188 h 0.0517 z"
         style="text-align:center;text-anchor:middle;fill:#ffffff;fill-opacity:1;stroke-width:0.26458332"
         id="path5284"
         inkscape:connector-curvature="0" />
      <path
         d="m 177.82893,263.87836 q 0,1.41076 -0.72347,2.22725 -0.72347,0.81649 -1.93787,0.81649 -1.22473,0 -1.9482,-0.81649 -0.7183,-0.81649 -0.7183,-2.22725 0,-1.41077 0.7183,-2.22726 0.72347,-0.82165 1.9482,-0.82165 1.2144,0 1.93787,0.82165 0.72347,0.81649 0.72347,2.22726 z m -1.00253,0 q 0,-1.12138 -0.43925,-1.66398 -0.43925,-0.54777 -1.21956,-0.54777 -0.79065,0 -1.2299,0.54777 -0.43408,0.5426 -0.43408,1.66398 0,1.0852 0.43925,1.64848 0.43925,0.5581 1.22473,0.5581 0.77515,0 1.2144,-0.55294 0.44441,-0.5581 0.44441,-1.65364 z"
         style="text-align:center;text-anchor:middle;fill:#ffffff;fill-opacity:1;stroke-width:0.26458332"
         id="path5286"
         inkscape:connector-curvature="0" />
      <path
         d="m 184.01976,266.10561 q 0,1.46761 -0.66663,2.15491 -0.66662,0.68729 -2.05155,0.68729 -0.45992,0 -0.89917,-0.0672 -0.43408,-0.062 -0.85783,-0.18087 v -0.99219 h 0.0517 q 0.23772,0.093 0.75448,0.22738 0.51676,0.13952 1.03353,0.13952 0.49609,0 0.82165,-0.11885 0.32557,-0.11886 0.50643,-0.33073 0.18087,-0.20154 0.25839,-0.48576 0.0775,-0.28422 0.0775,-0.63562 v -0.5271 q -0.43925,0.3514 -0.84233,0.5271 -0.3979,0.17053 -1.01802,0.17053 -1.03353,0 -1.64331,-0.74414 -0.60462,-0.74931 -0.60462,-2.1084 0,-0.74414 0.20671,-1.28157 0.21187,-0.54261 0.57361,-0.93535 0.33589,-0.3669 0.81649,-0.56844 0.48059,-0.2067 0.95601,-0.2067 0.50126,0 0.83716,0.10335 0.34106,0.0982 0.7183,0.30489 l 0.062,-0.24805 h 0.90951 z m -0.97152,-0.93017 v -3.1471 q -0.38757,-0.1757 -0.72347,-0.24805 -0.33073,-0.0775 -0.66146,-0.0775 -0.80098,0 -1.2609,0.53743 -0.45992,0.53744 -0.45992,1.56063 0,0.97152 0.34106,1.47278 0.34107,0.50126 1.13172,0.50126 0.42374,0 0.84749,-0.16019 0.42891,-0.16537 0.78548,-0.43925 z"
         style="text-align:center;text-anchor:middle;fill:#ffffff;fill-opacity:1;stroke-width:0.26458332"
         id="path5288"
         inkscape:connector-curvature="0" />
      <path
         d="m 190.75837,266.7619 h -0.97152 v -3.28662 q 0,-0.39791 -0.0465,-0.74414 -0.0465,-0.3514 -0.17053,-0.54777 -0.12919,-0.21704 -0.37207,-0.32039 -0.24288,-0.10852 -0.63045,-0.10852 -0.39791,0 -0.83199,0.19637 -0.43408,0.19637 -0.83199,0.50126 v 4.30981 h -0.97152 v -5.77226 h 0.97152 v 0.64079 q 0.45475,-0.37724 0.94051,-0.58911 0.48576,-0.21187 0.99735,-0.21187 0.93535,0 1.42627,0.56327 0.49093,0.56327 0.49093,1.62264 z"
         style="text-align:center;text-anchor:middle;fill:#ffffff;fill-opacity:1;stroke-width:0.26458332"
         id="path5290"
         inkscape:connector-curvature="0" />
      <path
         d="m 193.67292,260.0233 h -1.09554 v -1.0077 h 1.09554 z m -0.062,6.7386 h -0.97152 v -5.77226 h 0.97152 z"
         style="text-align:center;text-anchor:middle;fill:#ffffff;fill-opacity:1;stroke-width:0.26458332"
         id="path5292"
         inkscape:connector-curvature="0" />
      <path
         d="m 199.68805,266.7619 h -4.66121 v -0.7183 l 3.36414,-4.24264 h -3.29179 v -0.81132 h 4.50101 v 0.69247 l -3.37963,4.25814 h 3.46748 z"
         style="text-align:center;text-anchor:middle;fill:#ffffff;fill-opacity:1;stroke-width:0.26458332"
         id="path5294"
         inkscape:connector-curvature="0" />
      <path
         d="m 205.83238,263.97654 h -4.25297 q 0,0.53227 0.1602,0.93018 0.1602,0.39274 0.43925,0.64595 0.26872,0.24805 0.63562,0.37207 0.37207,0.12403 0.81649,0.12403 0.58911,0 1.18339,-0.23255 0.59945,-0.23771 0.85266,-0.46508 h 0.0517 v 1.05936 q -0.49093,0.20671 -1.00253,0.34623 -0.51159,0.13953 -1.07487,0.13953 -1.4366,0 -2.24275,-0.77515 -0.80616,-0.78031 -0.80616,-2.21175 0,-1.41593 0.76998,-2.24792 0.77515,-0.83199 2.03605,-0.83199 1.16789,0 1.79834,0.68213 0.63562,0.68213 0.63562,1.93786 z m -0.94567,-0.74414 q -0.005,-0.76481 -0.38758,-1.18339 -0.37724,-0.41858 -1.15238,-0.41858 -0.78032,0 -1.2454,0.45992 -0.45992,0.45992 -0.52194,1.14205 z"
         style="text-align:center;text-anchor:middle;fill:#ffffff;fill-opacity:1;stroke-width:0.26458332"
         id="path5296"
         inkscape:connector-curvature="0" />
      <path
         d="m 214.02309,266.71023 q -0.27388,0.0723 -0.59944,0.11885 -0.3204,0.0465 -0.57361,0.0465 -0.88367,0 -1.34359,-0.47542 -0.45992,-0.47543 -0.45992,-1.52446 v -3.06958 h -0.65629 v -0.81649 h 0.65629 v -1.65881 h 0.97152 v 1.65881 h 2.00504 v 0.81649 h -2.00504 v 2.63033 q 0,0.45476 0.0207,0.71314 0.0207,0.25321 0.14469,0.47542 0.11369,0.20671 0.31006,0.30489 0.20154,0.093 0.60978,0.093 0.23771,0 0.4961,-0.0672 0.25838,-0.0724 0.37207,-0.11886 h 0.0517 z"
         style="text-align:center;text-anchor:middle;fill:#ffffff;fill-opacity:1;stroke-width:0.26458332"
         id="path5298"
         inkscape:connector-curvature="0" />
      <path
         d="m 220.0279,266.7619 h -0.97152 v -3.28662 q 0,-0.39791 -0.0465,-0.74414 -0.0465,-0.3514 -0.17053,-0.54777 -0.12919,-0.21704 -0.37207,-0.32039 -0.24288,-0.10852 -0.63045,-0.10852 -0.39791,0 -0.83199,0.19637 -0.43408,0.19637 -0.83199,0.50126 v 4.30981 h -0.97152 v -8.04085 h 0.97152 v 2.90938 q 0.45475,-0.37724 0.94051,-0.58911 0.48576,-0.21187 0.99735,-0.21187 0.93535,0 1.42627,0.56327 0.49093,0.56327 0.49093,1.62264 z"
         style="text-align:center;text-anchor:middle;fill:#ffffff;fill-opacity:1;stroke-width:0.26458332"
         id="path5300"
         inkscape:connector-curvature="0" />
      <path
         d="m 222.94245,260.0233 h -1.09554 v -1.0077 h 1.09554 z m -0.062,6.7386 h -0.97152 v -5.77226 h 0.97152 z"
         style="text-align:center;text-anchor:middle;fill:#ffffff;fill-opacity:1;stroke-width:0.26458332"
         id="path5302"
         inkscape:connector-curvature="0" />
      <path
         d="m 228.89557,265.09792 q 0,0.79065 -0.65629,1.29708 -0.65112,0.50643 -1.78283,0.50643 -0.64079,0 -1.17823,-0.14986 -0.53226,-0.15503 -0.894,-0.3359 v -1.09037 h 0.0517 q 0.45992,0.34623 1.02319,0.55293 0.56327,0.20154 1.08004,0.20154 0.64079,0 1.00252,-0.2067 0.36174,-0.20671 0.36174,-0.65113 0,-0.34106 -0.19637,-0.51676 -0.19637,-0.1757 -0.75448,-0.29972 -0.20671,-0.0465 -0.5426,-0.10852 -0.33073,-0.062 -0.60462,-0.13436 -0.75964,-0.20154 -1.08003,-0.58911 -0.31523,-0.39274 -0.31523,-0.96119 0,-0.35656 0.14469,-0.67179 0.14987,-0.31523 0.44959,-0.56327 0.28939,-0.24288 0.7338,-0.38241 0.44959,-0.14469 1.00253,-0.14469 0.51676,0 1.04386,0.12919 0.53227,0.12402 0.88367,0.30489 v 1.0387 h -0.0517 q -0.37207,-0.27389 -0.90434,-0.45992 -0.53226,-0.19121 -1.04386,-0.19121 -0.53227,0 -0.89917,0.20671 -0.3669,0.20154 -0.3669,0.60461 0,0.35657 0.22221,0.53744 0.21704,0.18087 0.70279,0.29455 0.26872,0.062 0.59945,0.12403 0.3359,0.062 0.55811,0.11369 0.67696,0.15502 1.04386,0.53226 0.3669,0.38241 0.3669,1.01286 z"
         style="text-align:center;text-anchor:middle;fill:#ffffff;fill-opacity:1;stroke-width:0.26458332"
         id="path5304"
         inkscape:connector-curvature="0" />
      <path
         d="m 239.25153,266.7619 h -1.28157 l -2.31511,-2.52698 -0.63045,0.59945 v 1.92753 h -0.97152 v -8.04085 h 0.97152 v 5.15731 l 2.80603,-2.88872 h 1.22473 l -2.68201,2.66651 z"
         style="text-align:center;text-anchor:middle;fill:#ffffff;fill-opacity:1;stroke-width:0.26458332"
         id="path5306"
         inkscape:connector-curvature="0" />
      <path
         d="m 245.00311,263.97654 h -4.25297 q 0,0.53227 0.1602,0.93018 0.1602,0.39274 0.43925,0.64595 0.26872,0.24805 0.63562,0.37207 0.37207,0.12403 0.81649,0.12403 0.58911,0 1.18339,-0.23255 0.59945,-0.23771 0.85266,-0.46508 h 0.0517 v 1.05936 q -0.49093,0.20671 -1.00253,0.34623 -0.51159,0.13953 -1.07487,0.13953 -1.4366,0 -2.24275,-0.77515 -0.80616,-0.78031 -0.80616,-2.21175 0,-1.41593 0.76998,-2.24792 0.77515,-0.83199 2.03606,-0.83199 1.16788,0 1.79833,0.68213 0.63562,0.68213 0.63562,1.93786 z m -0.94567,-0.74414 q -0.005,-0.76481 -0.38758,-1.18339 -0.37723,-0.41858 -1.15238,-0.41858 -0.78032,0 -1.2454,0.45992 -0.45992,0.45992 -0.52194,1.14205 z"
         style="text-align:center;text-anchor:middle;fill:#ffffff;fill-opacity:1;stroke-width:0.26458332"
         id="path5308"
         inkscape:connector-curvature="0" />
      <path
         d="m 251.46783,260.98964 -3.3693,7.90133 h -1.0387 l 1.07487,-2.40812 -2.2996,-5.49321 h 1.0542 l 1.7725,4.27881 1.78801,-4.27881 z"
         style="text-align:center;text-anchor:middle;fill:#ffffff;fill-opacity:1;stroke-width:0.26458332"
         id="path5310"
         inkscape:connector-curvature="0" />
      <path
         d="m 253.35403,266.7619 h -1.23507 v -1.47278 h 1.23507 z"
         style="text-align:center;text-anchor:middle;fill:#ffffff;fill-opacity:1;stroke-width:0.26458332"
         id="path5312"
         inkscape:connector-curvature="0" />
      <path
         d="m 257.19875,266.7619 h -1.23506 v -1.47278 h 1.23506 z"
         style="text-align:center;text-anchor:middle;fill:#ffffff;fill-opacity:1;stroke-width:0.26458332"
         id="path5314"
         inkscape:connector-curvature="0" />
      <path
         d="m 261.04348,266.7619 h -1.23507 v -1.47278 h 1.23507 z"
         style="text-align:center;text-anchor:middle;fill:#ffffff;fill-opacity:1;stroke-width:0.26458332"
         id="path5316"
         inkscape:connector-curvature="0" />
      <path
         d="m 121.17605,272.29645 -2.70784,4.32015 v 3.37447 h -1.0232 v -3.26595 l -2.71818,-4.42867 h 1.13172 l 2.10323,3.44165 2.1239,-3.44165 z"
         style="text-align:center;text-anchor:middle;fill:#ffffff;fill-opacity:1;stroke-width:0.26458332"
         id="path5318"
         inkscape:connector-curvature="0" />
      <path
         d="m 126.42121,277.10752 q 0,1.41077 -0.72347,2.22726 -0.72347,0.81649 -1.93787,0.81649 -1.22473,0 -1.9482,-0.81649 -0.7183,-0.81649 -0.7183,-2.22726 0,-1.41076 0.7183,-2.22725 0.72347,-0.82166 1.9482,-0.82166 1.2144,0 1.93787,0.82166 0.72347,0.81649 0.72347,2.22725 z m -1.00252,0 q 0,-1.12138 -0.43925,-1.66398 -0.43925,-0.54777 -1.21957,-0.54777 -0.79065,0 -1.22989,0.54777 -0.43409,0.5426 -0.43409,1.66398 0,1.08521 0.43925,1.64848 0.43925,0.55811 1.22473,0.55811 0.77515,0 1.2144,-0.55294 0.44442,-0.55811 0.44442,-1.65365 z"
         style="text-align:center;text-anchor:middle;fill:#ffffff;fill-opacity:1;stroke-width:0.26458332"
         id="path5320"
         inkscape:connector-curvature="0" />
      <path
         d="m 132.7154,279.99107 h -0.97152 v -0.64079 q -0.49092,0.38757 -0.94051,0.59428 -0.44958,0.20671 -0.99219,0.20671 -0.9095,0 -1.41593,-0.55294 -0.50643,-0.55811 -0.50643,-1.63298 v -3.74654 h 0.97152 v 3.28662 q 0,0.43925 0.0413,0.75448 0.0413,0.31006 0.1757,0.53226 0.13953,0.22738 0.36173,0.33073 0.22221,0.10336 0.64596,0.10336 0.37724,0 0.82165,-0.19637 0.44959,-0.19637 0.83716,-0.50126 v -4.30982 h 0.97152 z"
         style="text-align:center;text-anchor:middle;fill:#ffffff;fill-opacity:1;stroke-width:0.26458332"
         id="path5322"
         inkscape:connector-curvature="0" />
      <path
         d="m 142.47191,278.32709 q 0,0.79065 -0.65629,1.29708 -0.65112,0.50642 -1.78284,0.50642 -0.64078,0 -1.17822,-0.14986 -0.53227,-0.15503 -0.894,-0.33589 v -1.09038 h 0.0517 q 0.45992,0.34624 1.0232,0.55294 0.56327,0.20154 1.08004,0.20154 0.64078,0 1.00252,-0.20671 0.36173,-0.2067 0.36173,-0.65112 0,-0.34106 -0.19637,-0.51676 -0.19637,-0.1757 -0.75447,-0.29973 -0.20671,-0.0465 -0.54261,-0.10852 -0.33072,-0.062 -0.60461,-0.13436 -0.75964,-0.20153 -1.08004,-0.58911 -0.31522,-0.39274 -0.31522,-0.96118 0,-0.35657 0.14469,-0.67179 0.14986,-0.31523 0.44959,-0.56328 0.28938,-0.24288 0.7338,-0.3824 0.44959,-0.1447 1.00252,-0.1447 0.51677,0 1.04387,0.1292 0.53226,0.12402 0.88366,0.30489 v 1.03869 h -0.0517 q -0.37207,-0.27388 -0.90434,-0.45992 -0.53227,-0.1912 -1.04386,-0.1912 -0.53227,0 -0.89917,0.20671 -0.36691,0.20153 -0.36691,0.60461 0,0.35657 0.22221,0.53743 0.21704,0.18087 0.7028,0.29456 0.26872,0.062 0.59945,0.12402 0.3359,0.062 0.5581,0.11369 0.67697,0.15503 1.04387,0.53227 0.3669,0.3824 0.3669,1.01286 z"
         style="text-align:center;text-anchor:middle;fill:#ffffff;fill-opacity:1;stroke-width:0.26458332"
         id="path5324"
         inkscape:connector-curvature="0" />
      <path
         d="m 148.69375,279.99107 h -0.97151 v -3.28662 q 0,-0.39791 -0.0465,-0.74414 -0.0465,-0.3514 -0.17053,-0.54777 -0.1292,-0.21704 -0.37208,-0.3204 -0.24287,-0.10852 -0.63045,-0.10852 -0.39791,0 -0.83199,0.19637 -0.43408,0.19637 -0.83199,0.50126 v 4.30982 h -0.97152 v -8.04085 h 0.97152 v 2.90938 q 0.45475,-0.37724 0.94051,-0.58911 0.48576,-0.21188 0.99736,-0.21188 0.93534,0 1.42627,0.56328 0.49092,0.56327 0.49092,1.62264 z"
         style="text-align:center;text-anchor:middle;fill:#ffffff;fill-opacity:1;stroke-width:0.26458332"
         id="path5326"
         inkscape:connector-curvature="0" />
      <path
         d="m 155.48404,277.10752 q 0,1.41077 -0.72347,2.22726 -0.72347,0.81649 -1.93787,0.81649 -1.22473,0 -1.9482,-0.81649 -0.7183,-0.81649 -0.7183,-2.22726 0,-1.41076 0.7183,-2.22725 0.72347,-0.82166 1.9482,-0.82166 1.2144,0 1.93787,0.82166 0.72347,0.81649 0.72347,2.22725 z m -1.00253,0 q 0,-1.12138 -0.43925,-1.66398 -0.43925,-0.54777 -1.21956,-0.54777 -0.79065,0 -1.2299,0.54777 -0.43408,0.5426 -0.43408,1.66398 0,1.08521 0.43925,1.64848 0.43925,0.55811 1.22473,0.55811 0.77515,0 1.2144,-0.55294 0.44441,-0.55811 0.44441,-1.65365 z"
         style="text-align:center;text-anchor:middle;fill:#ffffff;fill-opacity:1;stroke-width:0.26458332"
         id="path5328"
         inkscape:connector-curvature="0" />
      <path
         d="m 161.77822,279.99107 h -0.97151 v -0.64079 q -0.49093,0.38757 -0.94051,0.59428 -0.44959,0.20671 -0.99219,0.20671 -0.90951,0 -1.41594,-0.55294 -0.50642,-0.55811 -0.50642,-1.63298 v -3.74654 h 0.97151 v 3.28662 q 0,0.43925 0.0413,0.75448 0.0413,0.31006 0.1757,0.53226 0.13953,0.22738 0.36174,0.33073 0.22221,0.10336 0.64595,0.10336 0.37724,0 0.82166,-0.19637 0.44958,-0.19637 0.83716,-0.50126 v -4.30982 h 0.97151 z"
         style="text-align:center;text-anchor:middle;fill:#ffffff;fill-opacity:1;stroke-width:0.26458332"
         id="path5330"
         inkscape:connector-curvature="0" />
      <path
         d="m 164.6721,279.99107 h -0.97151 v -8.04085 h 0.97151 z"
         style="text-align:center;text-anchor:middle;fill:#ffffff;fill-opacity:1;stroke-width:0.26458332"
         id="path5332"
         inkscape:connector-curvature="0" />
      <path
         d="m 171.24535,279.99107 h -0.97152 v -0.60462 q -0.41858,0.36174 -0.87333,0.56328 -0.45475,0.20154 -0.98702,0.20154 -1.03353,0 -1.64331,-0.79582 -0.60462,-0.79582 -0.60462,-2.20659 0,-0.7338 0.20671,-1.30741 0.21187,-0.57361 0.56844,-0.97668 0.3514,-0.39274 0.81649,-0.59945 0.47025,-0.20671 0.97152,-0.20671 0.45475,0 0.80615,0.0982 0.3514,0.093 0.73897,0.29455 v -2.50113 h 0.97152 z m -0.97152,-1.4211 v -3.31246 q -0.39274,-0.1757 -0.7028,-0.24288 -0.31006,-0.0672 -0.67696,-0.0672 -0.81649,0 -1.27124,0.56844 -0.45475,0.56844 -0.45475,1.6123 0,1.02836 0.3514,1.5658 0.3514,0.53227 1.12654,0.53227 0.41341,0 0.83716,-0.18087 0.42375,-0.18604 0.79065,-0.47542 z"
         style="text-align:center;text-anchor:middle;fill:#ffffff;fill-opacity:1;stroke-width:0.26458332"
         id="path5334"
         inkscape:connector-curvature="0" />
      <path
         d="m 179.87531,279.93939 q -0.27389,0.0723 -0.59945,0.11886 -0.32039,0.0465 -0.57361,0.0465 -0.88366,0 -1.34358,-0.47543 -0.45992,-0.47542 -0.45992,-1.52445 v -3.06958 h -0.65629 v -0.81649 h 0.65629 V 272.56 h 0.97151 v 1.65881 h 2.00505 v 0.81649 h -2.00505 v 2.63033 q 0,0.45475 0.0207,0.71313 0.0207,0.25322 0.1447,0.47543 0.11369,0.2067 0.31006,0.30489 0.20154,0.093 0.60978,0.093 0.23771,0 0.49609,-0.0672 0.25839,-0.0723 0.37207,-0.11886 h 0.0517 z"
         style="text-align:center;text-anchor:middle;fill:#ffffff;fill-opacity:1;stroke-width:0.26458332"
         id="path5336"
         inkscape:connector-curvature="0" />
      <path
         d="m 184.65538,275.27818 h -0.0517 q -0.21704,-0.0517 -0.42375,-0.0724 -0.20153,-0.0258 -0.48059,-0.0258 -0.44958,0 -0.86816,0.20154 -0.41858,0.19637 -0.80615,0.5116 v 4.09794 h -0.97152 v -5.77226 h 0.97152 v 0.85266 q 0.57877,-0.46509 1.01802,-0.65629 0.44442,-0.19637 0.90434,-0.19637 0.25321,0 0.3669,0.0155 0.11369,0.0103 0.34107,0.0465 z"
         style="text-align:center;text-anchor:middle;fill:#ffffff;fill-opacity:1;stroke-width:0.26458332"
         id="path5338"
         inkscape:connector-curvature="0" />
      <path
         d="m 190.57233,274.21881 -3.3693,7.90133 h -1.0387 l 1.07487,-2.40812 -2.2996,-5.49321 h 1.0542 l 1.7725,4.27881 1.788,-4.27881 z"
         style="text-align:center;text-anchor:middle;fill:#ffffff;fill-opacity:1;stroke-width:0.26458332"
         id="path5340"
         inkscape:connector-curvature="0" />
      <path
         d="m 198.56151,279.93939 q -0.27389,0.0723 -0.59945,0.11886 -0.3204,0.0465 -0.57361,0.0465 -0.88367,0 -1.34359,-0.47543 -0.45992,-0.47542 -0.45992,-1.52445 v -3.06958 h -0.65629 v -0.81649 h 0.65629 V 272.56 h 0.97152 v 1.65881 h 2.00505 v 0.81649 h -2.00505 v 2.63033 q 0,0.45475 0.0207,0.71313 0.0207,0.25322 0.14469,0.47543 0.11369,0.2067 0.31006,0.30489 0.20154,0.093 0.60978,0.093 0.23772,0 0.4961,-0.0672 0.25838,-0.0723 0.37207,-0.11886 h 0.0517 z"
         style="text-align:center;text-anchor:middle;fill:#ffffff;fill-opacity:1;stroke-width:0.26458332"
         id="path5342"
         inkscape:connector-curvature="0" />
      <path
         d="m 204.56631,279.99107 h -0.97152 v -3.28662 q 0,-0.39791 -0.0465,-0.74414 -0.0465,-0.3514 -0.17054,-0.54777 -0.12919,-0.21704 -0.37207,-0.3204 -0.24288,-0.10852 -0.63045,-0.10852 -0.39791,0 -0.83199,0.19637 -0.43408,0.19637 -0.83199,0.50126 v 4.30982 h -0.97152 v -8.04085 h 0.97152 v 2.90938 q 0.45475,-0.37724 0.94051,-0.58911 0.48576,-0.21188 0.99736,-0.21188 0.93534,0 1.42627,0.56328 0.49092,0.56327 0.49092,1.62264 z"
         style="text-align:center;text-anchor:middle;fill:#ffffff;fill-opacity:1;stroke-width:0.26458332"
         id="path5344"
         inkscape:connector-curvature="0" />
      <path
         d="m 210.92251,279.99107 h -0.96635 v -0.61495 q -0.12919,0.0879 -0.3514,0.24805 -0.21704,0.15502 -0.42374,0.24804 -0.24288,0.11886 -0.55811,0.19637 -0.31522,0.0827 -0.73897,0.0827 -0.78032,0 -1.32292,-0.51677 -0.5426,-0.51676 -0.5426,-1.31775 0,-0.65629 0.27905,-1.05937 0.28422,-0.40824 0.80615,-0.64078 0.5271,-0.23255 1.26608,-0.31523 0.73897,-0.0827 1.58646,-0.12402 v -0.14986 q 0,-0.33073 -0.11885,-0.54777 -0.11369,-0.21705 -0.33073,-0.34107 -0.20671,-0.11885 -0.4961,-0.1602 -0.28938,-0.0413 -0.60461,-0.0413 -0.38241,0 -0.85266,0.10336 -0.47026,0.0982 -0.97152,0.28938 h -0.0517 v -0.98702 q 0.28422,-0.0775 0.82165,-0.17053 0.53744,-0.093 1.05937,-0.093 0.60978,0 1.05936,0.10336 0.45476,0.0982 0.78549,0.34106 0.32556,0.23771 0.49609,0.61495 0.17053,0.37724 0.17053,0.93534 z m -0.96635,-1.4211 v -1.60714 q -0.44441,0.0258 -1.04903,0.0775 -0.59944,0.0517 -0.95084,0.14987 -0.41858,0.11885 -0.67697,0.37207 -0.25838,0.24804 -0.25838,0.68729 0,0.4961 0.29973,0.74931 0.29972,0.24805 0.91467,0.24805 0.51159,0 0.93534,-0.19637 0.42375,-0.20154 0.78548,-0.48059 z"
         style="text-align:center;text-anchor:middle;fill:#ffffff;fill-opacity:1;stroke-width:0.26458332"
         id="path5346"
         inkscape:connector-curvature="0" />
      <path
         d="m 215.80076,279.93939 q -0.27388,0.0723 -0.59944,0.11886 -0.3204,0.0465 -0.57361,0.0465 -0.88367,0 -1.34359,-0.47543 -0.45992,-0.47542 -0.45992,-1.52445 v -3.06958 h -0.65629 v -0.81649 h 0.65629 V 272.56 h 0.97152 v 1.65881 h 2.00504 v 0.81649 h -2.00504 v 2.63033 q 0,0.45475 0.0207,0.71313 0.0207,0.25322 0.14469,0.47543 0.11369,0.2067 0.31006,0.30489 0.20154,0.093 0.60978,0.093 0.23771,0 0.4961,-0.0672 0.25838,-0.0723 0.37207,-0.11886 h 0.0517 z"
         style="text-align:center;text-anchor:middle;fill:#ffffff;fill-opacity:1;stroke-width:0.26458332"
         id="path5348"
         inkscape:connector-curvature="0" />
      <path
         d="m 225.18521,279.99107 h -0.96635 v -0.61495 q -0.12919,0.0879 -0.3514,0.24805 -0.21704,0.15502 -0.42375,0.24804 -0.24288,0.11886 -0.5581,0.19637 -0.31523,0.0827 -0.73898,0.0827 -0.78031,0 -1.32291,-0.51677 -0.54261,-0.51676 -0.54261,-1.31775 0,-0.65629 0.27906,-1.05937 0.28422,-0.40824 0.80615,-0.64078 0.5271,-0.23255 1.26607,-0.31523 0.73898,-0.0827 1.58647,-0.12402 v -0.14986 q 0,-0.33073 -0.11886,-0.54777 -0.11369,-0.21705 -0.33073,-0.34107 -0.2067,-0.11885 -0.49609,-0.1602 -0.28939,-0.0413 -0.60461,-0.0413 -0.38241,0 -0.85267,0.10336 -0.47025,0.0982 -0.97151,0.28938 h -0.0517 v -0.98702 q 0.28422,-0.0775 0.82166,-0.17053 0.53743,-0.093 1.05936,-0.093 0.60979,0 1.05937,0.10336 0.45475,0.0982 0.78548,0.34106 0.32556,0.23771 0.4961,0.61495 0.17053,0.37724 0.17053,0.93534 z m -0.96635,-1.4211 v -1.60714 q -0.44442,0.0258 -1.04903,0.0775 -0.59945,0.0517 -0.95085,0.14987 -0.41858,0.11885 -0.67696,0.37207 -0.25838,0.24804 -0.25838,0.68729 0,0.4961 0.29972,0.74931 0.29972,0.24805 0.91467,0.24805 0.5116,0 0.93535,-0.19637 0.42374,-0.20154 0.78548,-0.48059 z"
         style="text-align:center;text-anchor:middle;fill:#ffffff;fill-opacity:1;stroke-width:0.26458332"
         id="path5350"
         inkscape:connector-curvature="0" />
      <path
         d="m 231.74811,279.33478 q 0,1.46761 -0.66663,2.1549 -0.66662,0.6873 -2.05155,0.6873 -0.45992,0 -0.89917,-0.0672 -0.43408,-0.062 -0.85783,-0.18087 v -0.99218 h 0.0517 q 0.23771,0.093 0.75447,0.22737 0.51677,0.13953 1.03353,0.13953 0.4961,0 0.82166,-0.11886 0.32556,-0.11885 0.50643,-0.33073 0.18086,-0.20153 0.25838,-0.48575 0.0775,-0.28422 0.0775,-0.63562 v -0.5271 q -0.43925,0.3514 -0.84232,0.5271 -0.39791,0.17053 -1.01803,0.17053 -1.03353,0 -1.64331,-0.74414 -0.60461,-0.74931 -0.60461,-2.1084 0,-0.74414 0.2067,-1.28158 0.21188,-0.5426 0.57361,-0.93534 0.3359,-0.3669 0.81649,-0.56844 0.48059,-0.20671 0.95601,-0.20671 0.50126,0 0.83716,0.10336 0.34106,0.0982 0.7183,0.30489 l 0.062,-0.24805 h 0.90951 z m -0.97152,-0.93018 v -3.14709 q -0.38757,-0.1757 -0.72347,-0.24805 -0.33073,-0.0775 -0.66146,-0.0775 -0.80098,0 -1.2609,0.53743 -0.45992,0.53744 -0.45992,1.56063 0,0.97152 0.34106,1.47278 0.34107,0.50126 1.13172,0.50126 0.42374,0 0.84749,-0.1602 0.42892,-0.16536 0.78548,-0.43925 z"
         style="text-align:center;text-anchor:middle;fill:#ffffff;fill-opacity:1;stroke-width:0.26458332"
         id="path5352"
         inkscape:connector-curvature="0" />
      <path
         d="m 238.14566,279.99107 h -0.96635 v -0.61495 q -0.12919,0.0879 -0.3514,0.24805 -0.21704,0.15502 -0.42375,0.24804 -0.24288,0.11886 -0.5581,0.19637 -0.31523,0.0827 -0.73898,0.0827 -0.78031,0 -1.32291,-0.51677 -0.54261,-0.51676 -0.54261,-1.31775 0,-0.65629 0.27906,-1.05937 0.28422,-0.40824 0.80615,-0.64078 0.5271,-0.23255 1.26607,-0.31523 0.73897,-0.0827 1.58647,-0.12402 v -0.14986 q 0,-0.33073 -0.11886,-0.54777 -0.11369,-0.21705 -0.33073,-0.34107 -0.2067,-0.11885 -0.49609,-0.1602 -0.28939,-0.0413 -0.60461,-0.0413 -0.38241,0 -0.85267,0.10336 -0.47025,0.0982 -0.97151,0.28938 h -0.0517 v -0.98702 q 0.28422,-0.0775 0.82166,-0.17053 0.53743,-0.093 1.05936,-0.093 0.60978,0 1.05937,0.10336 0.45475,0.0982 0.78548,0.34106 0.32556,0.23771 0.4961,0.61495 0.17053,0.37724 0.17053,0.93534 z m -0.96635,-1.4211 v -1.60714 q -0.44442,0.0258 -1.04903,0.0775 -0.59945,0.0517 -0.95085,0.14987 -0.41858,0.11885 -0.67696,0.37207 -0.25838,0.24804 -0.25838,0.68729 0,0.4961 0.29972,0.74931 0.29972,0.24805 0.91467,0.24805 0.5116,0 0.93535,-0.19637 0.42374,-0.20154 0.78548,-0.48059 z"
         style="text-align:center;text-anchor:middle;fill:#ffffff;fill-opacity:1;stroke-width:0.26458332"
         id="path5354"
         inkscape:connector-curvature="0" />
      <path
         d="M 241.07054,273.25246 H 239.975 v -1.00769 h 1.09554 z m -0.062,6.73861 h -0.97152 v -5.77226 h 0.97152 z"
         style="text-align:center;text-anchor:middle;fill:#ffffff;fill-opacity:1;stroke-width:0.26458332"
         id="path5356"
         inkscape:connector-curvature="0" />
      <path
         d="m 247.72647,279.99107 h -0.97152 v -3.28662 q 0,-0.39791 -0.0465,-0.74414 -0.0465,-0.3514 -0.17053,-0.54777 -0.12919,-0.21704 -0.37207,-0.3204 -0.24288,-0.10852 -0.63045,-0.10852 -0.39791,0 -0.83199,0.19637 -0.43409,0.19637 -0.83199,0.50126 v 4.30982 h -0.97152 v -5.77226 h 0.97152 v 0.64079 q 0.45475,-0.37724 0.94051,-0.58911 0.48576,-0.21188 0.99735,-0.21188 0.93535,0 1.42627,0.56328 0.49093,0.56327 0.49093,1.62264 z"
         style="text-align:center;text-anchor:middle;fill:#ffffff;fill-opacity:1;stroke-width:0.26458332"
         id="path5358"
         inkscape:connector-curvature="0" />
      <path
         d="m 251.30248,272.29645 -0.13436,5.57588 h -0.8785 l -0.1447,-5.57588 z m -0.0517,7.69462 h -1.0542 v -1.09037 h 1.0542 z"
         style="text-align:center;text-anchor:middle;fill:#ffffff;fill-opacity:1;stroke-width:0.26458332"
         id="path5360"
         inkscape:connector-curvature="0" />
    </g>
    <path
       style="fill:none;stroke:#ffffff;stroke-width:2.96499991;stroke-linecap:butt;stroke-linejoin:miter;stroke-miterlimit:4;stroke-dasharray:none;stroke-opacity:1"
       d="m 63.113448,220.063 c 25.565299,-12.02469 52.348492,-17.95985 83.910702,0"
       id="path5372"
       inkscape:connector-curvature="0"
       sodipodi:nodetypes="cc" />
    <ellipse
       style="opacity:0.93599997;vector-effect:none;fill:#ffffff;fill-opacity:1;stroke:#ffffff;stroke-width:2.96499991;stroke-linecap:butt;stroke-linejoin:miter;stroke-miterlimit:4;stroke-dasharray:none;stroke-dashoffset:0;stroke-opacity:1"
       id="path5374"
       cx="84.666664"
       cy="190.7887"
       rx="4.5357141"
       ry="3.4017856" />
    <ellipse
       ry="3.4017856"
       rx="4.5357141"
       cy="196.8363"
       cx="126.62202"
       id="ellipse5376"
       style="opacity:0.93599997;vector-effect:none;fill:#ffffff;fill-opacity:1;stroke:#ffffff;stroke-width:2.96499991;stroke-linecap:butt;stroke-linejoin:miter;stroke-miterlimit:4;stroke-dasharray:none;stroke-dashoffset:0;stroke-opacity:1" />
  </g>
</svg>
