<?xml version="1.0" encoding="UTF-8" standalone="no"?>
<!-- Created with Inkscape (http://www.inkscape.org/) -->

<svg
   xmlns:dc="http://purl.org/dc/elements/1.1/"
   xmlns:cc="http://creativecommons.org/ns#"
   xmlns:rdf="http://www.w3.org/1999/02/22-rdf-syntax-ns#"
   xmlns:svg="http://www.w3.org/2000/svg"
   xmlns="http://www.w3.org/2000/svg"
   xmlns:xlink="http://www.w3.org/1999/xlink"
   xmlns:sodipodi="http://sodipodi.sourceforge.net/DTD/sodipodi-0.dtd"
   xmlns:inkscape="http://www.inkscape.org/namespaces/inkscape"
   width="210mm"
   height="118mm"
   viewBox="0 0 210 118"
   version="1.1"
   id="svg4511"
   inkscape:version="0.92.1 r15371"
   sodipodi:docname="Success.svg">
  <defs
     id="defs4505" />
  <sodipodi:namedview
     id="base"
     pagecolor="#4b4b4b"
     bordercolor="#666666"
     borderopacity="1.0"
     inkscape:pageopacity="0"
     inkscape:pageshadow="2"
     inkscape:zoom="0.7"
     inkscape:cx="410.93939"
     inkscape:cy="342.76932"
     inkscape:document-units="mm"
     inkscape:current-layer="layer1"
     showgrid="false"
     inkscape:window-width="1366"
     inkscape:window-height="715"
     inkscape:window-x="-8"
     inkscape:window-y="-8"
     inkscape:window-maximized="1" />
  <metadata
     id="metadata4508">
    <rdf:RDF>
      <cc:Work
         rdf:about="">
        <dc:format>image/svg+xml</dc:format>
        <dc:type
           rdf:resource="http://purl.org/dc/dcmitype/StillImage" />
        <dc:title></dc:title>
      </cc:Work>
    </rdf:RDF>
  </metadata>
  <g
     inkscape:label="Layer 1"
     inkscape:groupmode="layer"
     id="layer1"
     transform="translate(0,-179)"
     style="display:inline">
    <flowRoot
       xml:space="preserve"
       id="flowRoot4513"
       style="font-style:normal;font-weight:normal;font-size:85.33333588px;line-height:1.25;font-family:sans-serif;letter-spacing:0px;word-spacing:0px;fill:#000000;fill-opacity:1;stroke:none"
       transform="matrix(0.26458333,0,0,0.26458333,0,179)"><flowRegion
         id="flowRegion4515"
         style="font-size:85.33333588px"><rect
           id="rect4517"
           width="740"
           height="248.57143"
           x="25.714285"
           y="94.555679"
           style="font-size:85.33333588px" /></flowRegion><flowPara
         id="flowPara4519"></flowPara></flowRoot>    <g
       aria-label="SUCCESS!!!"
       transform="matrix(0.26458333,0,0,0.26458333,2.2678571,214.52977)"
       style="font-style:normal;font-weight:normal;font-size:40px;line-height:1.25;font-family:sans-serif;letter-spacing:0px;word-spacing:0px;fill:#ffffff;fill-opacity:1;stroke:none"
       id="flowRoot4521">
      <g
         id="g4699"
         transform="translate(44.71647)">
        <path
           inkscape:connector-curvature="0"
           id="path4587"
           style="font-size:96px;text-align:center;text-anchor:middle;fill:#ffffff;fill-opacity:1"
           d="m 172.65625,150.78879 q 0,4.07812 -1.92188,8.0625 -1.875,3.98437 -5.29687,6.75 -3.75,3 -8.76563,4.6875 -4.96875,1.6875 -12,1.6875 -7.54687,0 -13.59375,-1.40625 -5.99999,-1.40625 -12.23437,-4.17188 v -11.625 H 119.5 q 5.29688,4.40625 12.23437,6.79688 6.9375,2.39062 13.03125,2.39062 8.625,0 13.40625,-3.23437 4.82813,-3.23438 4.82813,-8.625 0,-4.64063 -2.29688,-6.84375 -2.25,-2.20313 -6.89062,-3.42188 -3.51563,-0.9375 -7.64063,-1.54687 -4.07812,-0.60938 -8.67187,-1.54688 -9.28125,-1.96875 -13.78125,-6.70312 -4.45312,-4.78125 -4.45312,-12.42188 0,-8.76562 7.40625,-14.34375 7.40624,-5.624996 18.79687,-5.624996 7.35937,0 13.5,1.406246 6.14062,1.40625 10.875,3.46875 v 10.96875 h -0.65625 q -3.98438,-3.375 -10.5,-5.57812 -6.46875,-2.25 -13.26563,-2.25 -7.45312,0 -12,3.09375 -4.5,3.09375 -4.5,7.96875 0,4.35937 2.25,6.84375 2.25,2.48437 7.92188,3.79687 3,0.65625 8.53125,1.59375 5.53125,0.9375 9.375,1.92188 7.78125,2.0625 11.71875,6.23437 3.9375,4.17188 3.9375,11.67188 z" />
        <path
           inkscape:connector-curvature="0"
           id="path4589"
           style="font-size:96px;text-align:center;text-anchor:middle;fill:#ffffff;fill-opacity:1"
           d="m 240.10937,142.67941 q 0,7.59375 -1.6875,13.26563 -1.64062,5.625 -5.4375,9.375 -3.60937,3.5625 -8.4375,5.20312 -4.82812,1.64063 -11.25,1.64063 -6.5625,0 -11.4375,-1.73438 -4.875,-1.73437 -8.20312,-5.10937 -3.79688,-3.84375 -5.48438,-9.28125 -1.64062,-5.4375 -1.64062,-13.35938 v -41.76562 h 9.28125 v 42.23437 q 0,5.67188 0.75,8.95313 0.79687,3.28125 2.625,5.95312 2.0625,3.04688 5.57812,4.59375 3.5625,1.54688 8.53125,1.54688 5.01563,0 8.53125,-1.5 3.51563,-1.54688 5.625,-4.64063 1.82813,-2.67187 2.57813,-6.09375 0.79687,-3.46875 0.79687,-8.57812 v -42.46875 h 9.28125 z" />
        <path
           inkscape:connector-curvature="0"
           id="path4591"
           style="font-size:96px;text-align:center;text-anchor:middle;fill:#ffffff;fill-opacity:1"
           d="m 311.78125,165.64816 q -2.57813,1.125 -4.6875,2.10938 -2.0625,0.98437 -5.4375,2.0625 -2.85938,0.89062 -6.23438,1.5 -3.32812,0.65625 -7.35937,0.65625 -7.59375,0 -13.82813,-2.10938 -6.1875,-2.15625 -10.78125,-6.70312 -4.5,-4.45313 -7.03125,-11.29688 -2.53125,-6.89062 -2.53125,-15.98437 0,-8.625 2.4375,-15.42188 2.4375,-6.79687 7.03125,-11.48437 4.45313,-4.54688 10.73438,-6.9375 6.32812,-2.390626 14.01562,-2.390626 5.625,0 11.20313,1.359376 5.625,1.35937 12.46875,4.78125 v 11.01562 h -0.70313 q -5.76562,-4.82812 -11.4375,-7.03125 -5.67187,-2.20312 -12.14062,-2.20312 -5.29688,0 -9.5625,1.73437 -4.21875,1.6875 -7.54688,5.29688 -3.23437,3.51562 -5.0625,8.90625 -1.78125,5.34375 -1.78125,12.375 0,7.35937 1.96875,12.65625 2.01563,5.29687 5.15625,8.625 3.28125,3.46875 7.64063,5.15625 4.40625,1.64062 9.28125,1.64062 6.70312,0 12.5625,-2.29687 5.85937,-2.29688 10.96875,-6.89063 h 0.65625 z" />
        <path
           inkscape:connector-curvature="0"
           id="path4593"
           style="font-size:96px;text-align:center;text-anchor:middle;fill:#ffffff;fill-opacity:1"
           d="m 378.90625,165.64816 q -2.57813,1.125 -4.6875,2.10938 -2.0625,0.98437 -5.4375,2.0625 -2.85938,0.89062 -6.23438,1.5 -3.32812,0.65625 -7.35937,0.65625 -7.59375,0 -13.82813,-2.10938 -6.1875,-2.15625 -10.78125,-6.70312 -4.5,-4.45313 -7.03125,-11.29688 -2.53125,-6.89062 -2.53125,-15.98437 0,-8.625 2.4375,-15.42188 2.4375,-6.79687 7.03125,-11.48437 4.45313,-4.54688 10.73438,-6.9375 6.32812,-2.390626 14.01562,-2.390626 5.625,0 11.20313,1.359376 5.625,1.35937 12.46875,4.78125 v 11.01562 h -0.70313 q -5.76562,-4.82812 -11.4375,-7.03125 -5.67187,-2.20312 -12.14062,-2.20312 -5.29688,0 -9.5625,1.73437 -4.21875,1.6875 -7.54688,5.29688 -3.23437,3.51562 -5.0625,8.90625 -1.78125,5.34375 -1.78125,12.375 0,7.35937 1.96875,12.65625 2.01563,5.29687 5.15625,8.625 3.28125,3.46875 7.64063,5.15625 4.40625,1.64062 9.28125,1.64062 6.70312,0 12.5625,-2.29687 5.85937,-2.29688 10.96875,-6.89063 h 0.65625 z" />
        <path
           inkscape:connector-curvature="0"
           id="path4595"
           style="font-size:96px;text-align:center;text-anchor:middle;fill:#ffffff;fill-opacity:1"
           d="M 438.10937,170.71066 H 392.125 v -69.79687 h 45.98437 v 8.25 h -36.70312 v 19.125 h 36.70312 v 8.25 h -36.70312 v 25.92187 h 36.70312 z" />
        <path
           inkscape:connector-curvature="0"
           id="path4597"
           style="font-size:96px;text-align:center;text-anchor:middle;fill:#ffffff;fill-opacity:1"
           d="m 503.59375,150.78879 q 0,4.07812 -1.92188,8.0625 -1.875,3.98437 -5.29687,6.75 -3.75,3 -8.76563,4.6875 -4.96875,1.6875 -12,1.6875 -7.54687,0 -13.59375,-1.40625 -6,-1.40625 -12.23437,-4.17188 v -11.625 h 0.65625 q 5.29687,4.40625 12.23437,6.79688 6.9375,2.39062 13.03125,2.39062 8.625,0 13.40625,-3.23437 4.82813,-3.23438 4.82813,-8.625 0,-4.64063 -2.29688,-6.84375 -2.25,-2.20313 -6.89062,-3.42188 -3.51563,-0.9375 -7.64063,-1.54687 -4.07812,-0.60938 -8.67187,-1.54688 -9.28125,-1.96875 -13.78125,-6.70312 -4.45313,-4.78125 -4.45313,-12.42188 0,-8.76562 7.40625,-14.34375 7.40625,-5.624996 18.79688,-5.624996 7.35937,0 13.5,1.406246 6.14062,1.40625 10.875,3.46875 v 10.96875 H 500.125 q -3.98438,-3.375 -10.5,-5.57812 -6.46875,-2.25 -13.26563,-2.25 -7.45312,0 -12,3.09375 -4.5,3.09375 -4.5,7.96875 0,4.35937 2.25,6.84375 2.25,2.48437 7.92188,3.79687 3,0.65625 8.53125,1.59375 5.53125,0.9375 9.375,1.92188 7.78125,2.0625 11.71875,6.23437 3.9375,4.17188 3.9375,11.67188 z" />
        <path
           inkscape:connector-curvature="0"
           id="path4599"
           style="font-size:96px;text-align:center;text-anchor:middle;fill:#ffffff;fill-opacity:1"
           d="m 568.28125,150.78879 q 0,4.07812 -1.92188,8.0625 -1.875,3.98437 -5.29687,6.75 -3.75,3 -8.76563,4.6875 -4.96875,1.6875 -12,1.6875 -7.54687,0 -13.59375,-1.40625 -6,-1.40625 -12.23437,-4.17188 v -11.625 h 0.65625 q 5.29687,4.40625 12.23437,6.79688 6.9375,2.39062 13.03125,2.39062 8.625,0 13.40625,-3.23437 4.82813,-3.23438 4.82813,-8.625 0,-4.64063 -2.29688,-6.84375 -2.25,-2.20313 -6.89062,-3.42188 -3.51563,-0.9375 -7.64063,-1.54687 -4.07812,-0.60938 -8.67187,-1.54688 -9.28125,-1.96875 -13.78125,-6.70312 -4.45313,-4.78125 -4.45313,-12.42188 0,-8.76562 7.40625,-14.34375 7.40625,-5.624996 18.79688,-5.624996 7.35937,0 13.5,1.406246 6.14062,1.40625 10.875,3.46875 v 10.96875 h -0.65625 q -3.98438,-3.375 -10.5,-5.57812 -6.46875,-2.25 -13.26563,-2.25 -7.45312,0 -12,3.09375 -4.5,3.09375 -4.5,7.96875 0,4.35937 2.25,6.84375 2.25,2.48437 7.92188,3.79687 3,0.65625 8.53125,1.59375 5.53125,0.9375 9.375,1.92188 7.78125,2.0625 11.71875,6.23437 3.9375,4.17188 3.9375,11.67188 z" />
      </g>
    </g>
    <g
       aria-label="Enjoy using Car2Park!"
       transform="matrix(0.26458333,0,0,0.26458333,21.310536,181.26786)"
       style="font-style:normal;font-weight:normal;font-size:40px;line-height:1.25;font-family:sans-serif;letter-spacing:0px;word-spacing:0px;fill:#ffffff;fill-opacity:1;stroke:none"
       id="flowRoot4529">
      <path
         d="M 117.35156,356.76274 H 98.191406 v -29.08203 h 19.160154 v 3.4375 h -15.29297 v 7.96875 h 15.29297 v 3.4375 h -15.29297 v 10.80078 h 15.29297 z"
         style="fill:#ffffff;fill-opacity:1"
         id="path4548"
         inkscape:connector-curvature="0" />
      <path
         d="m 141.45312,356.76274 h -3.67187 v -12.42187 q 0,-1.50391 -0.17578,-2.8125 -0.17578,-1.32813 -0.64453,-2.07031 -0.48828,-0.82032 -1.40625,-1.21094 -0.91797,-0.41016 -2.38282,-0.41016 -1.5039,0 -3.14453,0.74219 -1.64062,0.74219 -3.14453,1.89453 v 16.28906 h -3.67187 v -21.8164 h 3.67187 v 2.42187 q 1.71875,-1.42578 3.55469,-2.22656 1.83594,-0.80078 3.76953,-0.80078 3.53516,0 5.39063,2.12891 1.85546,2.1289 1.85546,6.13281 z"
         style="fill:#ffffff;fill-opacity:1"
         id="path4550"
         inkscape:connector-curvature="0" />
      <path
         d="m 155.32031,331.29399 h -4.14062 v -3.80859 h 4.14062 z m -0.23437,25.9961 q 0,3.82812 -1.95313,5.78125 -1.95312,1.95312 -5.23437,1.95312 -0.78125,0 -2.07032,-0.15625 -1.26953,-0.15625 -2.1289,-0.39062 v -3.4961 h 0.19531 q 0.54688,0.21485 1.46484,0.48829 0.9375,0.27343 1.81641,0.27343 1.40625,0 2.26563,-0.39062 0.85937,-0.39063 1.28906,-1.17188 0.42969,-0.78125 0.54687,-1.89453 0.13672,-1.09375 0.13672,-2.67578 v -17.57812 h -4.55078 v -3.08594 h 8.22266 z"
         style="fill:#ffffff;fill-opacity:1"
         id="path4552"
         inkscape:connector-curvature="0" />
      <path
         d="m 180.86719,345.86431 q 0,5.33203 -2.73438,8.41797 -2.73437,3.08593 -7.32422,3.08593 -4.6289,0 -7.36328,-3.08593 -2.71484,-3.08594 -2.71484,-8.41797 0,-5.33203 2.71484,-8.41797 2.73438,-3.10547 7.36328,-3.10547 4.58985,0 7.32422,3.10547 2.73438,3.08594 2.73438,8.41797 z m -3.78907,0 q 0,-4.23828 -1.66015,-6.28907 -1.66016,-2.07031 -4.60938,-2.07031 -2.98828,0 -4.64843,2.07031 -1.64063,2.05079 -1.64063,6.28907 0,4.10156 1.66016,6.23047 1.66015,2.10937 4.6289,2.10937 2.92969,0 4.58985,-2.08984 1.67968,-2.10938 1.67968,-6.25 z"
         style="fill:#ffffff;fill-opacity:1"
         id="path4554"
         inkscape:connector-curvature="0" />
      <path
         d="m 205.125,334.94634 -12.73438,29.86328 h -3.92578 l 4.0625,-9.10156 -8.6914,-20.76172 h 3.98437 l 6.69922,16.17187 6.75781,-16.17187 z"
         style="fill:#ffffff;fill-opacity:1"
         id="path4556"
         inkscape:connector-curvature="0" />
      <path
         d="m 242.07812,356.76274 h -3.67187 v -2.42187 q -1.85547,1.46484 -3.55469,2.24609 -1.69922,0.78125 -3.75,0.78125 -3.4375,0 -5.35156,-2.08984 -1.91406,-2.10938 -1.91406,-6.17188 v -14.16015 h 3.67187 v 12.42187 q 0,1.66016 0.15625,2.85157 0.15625,1.17187 0.66406,2.01171 0.52735,0.85938 1.36719,1.25 0.83985,0.39063 2.44141,0.39063 1.42578,0 3.10547,-0.74219 1.69922,-0.74219 3.16406,-1.89453 v -16.28906 h 3.67187 z"
         style="fill:#ffffff;fill-opacity:1"
         id="path4558"
         inkscape:connector-curvature="0" />
      <path
         d="m 264.89062,350.47368 q 0,2.98828 -2.48046,4.90235 -2.46094,1.91406 -6.73829,1.91406 -2.42187,0 -4.45312,-0.56641 -2.01172,-0.58594 -3.37891,-1.26953 v -4.12109 h 0.19532 q 1.73828,1.30859 3.86718,2.08984 2.12891,0.76172 4.08203,0.76172 2.42188,0 3.78907,-0.78125 1.36718,-0.78125 1.36718,-2.46094 0,-1.28906 -0.74218,-1.95312 -0.74219,-0.66407 -2.85157,-1.13282 -0.78125,-0.17578 -2.05078,-0.41015 -1.25,-0.23438 -2.28515,-0.50781 -2.8711,-0.76172 -4.08203,-2.22657 -1.19141,-1.48437 -1.19141,-3.63281 0,-1.34766 0.54687,-2.53906 0.56641,-1.19141 1.69922,-2.12891 1.09375,-0.91797 2.77344,-1.44531 1.69922,-0.54688 3.78906,-0.54688 1.95313,0 3.94532,0.48829 2.01171,0.46875 3.33984,1.15234 v 3.92578 h -0.19531 q -1.40625,-1.03516 -3.41797,-1.73828 -2.01172,-0.72266 -3.94531,-0.72266 -2.01172,0 -3.39844,0.78125 -1.38672,0.76172 -1.38672,2.28516 0,1.34766 0.83984,2.03125 0.82032,0.68359 2.65625,1.11328 1.01563,0.23438 2.26563,0.46875 1.26953,0.23438 2.10937,0.42969 2.5586,0.58594 3.94532,2.01172 1.38671,1.44531 1.38671,3.82812 z"
         style="fill:#ffffff;fill-opacity:1"
         id="path4560"
         inkscape:connector-curvature="0" />
      <path
         d="m 274.10937,331.29399 h -4.14062 v -3.80859 h 4.14062 z m -0.23437,25.46875 h -3.67188 v -21.8164 h 3.67188 z"
         style="fill:#ffffff;fill-opacity:1"
         id="path4562"
         inkscape:connector-curvature="0" />
      <path
         d="m 299.26562,356.76274 h -3.67187 v -12.42187 q 0,-1.50391 -0.17578,-2.8125 -0.17578,-1.32813 -0.64453,-2.07031 -0.48828,-0.82032 -1.40625,-1.21094 -0.91797,-0.41016 -2.38282,-0.41016 -1.5039,0 -3.14453,0.74219 -1.64062,0.74219 -3.14453,1.89453 v 16.28906 h -3.67187 v -21.8164 h 3.67187 v 2.42187 q 1.71875,-1.42578 3.55469,-2.22656 1.83594,-0.80078 3.76953,-0.80078 3.53516,0 5.39063,2.12891 1.85546,2.1289 1.85546,6.13281 z"
         style="fill:#ffffff;fill-opacity:1"
         id="path4564"
         inkscape:connector-curvature="0" />
      <path
         d="m 324.03125,354.28228 q 0,5.54687 -2.51953,8.14453 -2.51953,2.59765 -7.75391,2.59765 -1.73828,0 -3.39844,-0.2539 -1.64062,-0.23438 -3.24218,-0.6836 v -3.75 h 0.19531 q 0.89844,0.35157 2.85156,0.85938 1.95313,0.52734 3.90625,0.52734 1.875,0 3.10547,-0.44922 1.23047,-0.44922 1.91406,-1.25 0.6836,-0.76172 0.97657,-1.83593 0.29296,-1.07422 0.29296,-2.40235 v -1.99219 q -1.66015,1.32813 -3.18359,1.99219 -1.50391,0.64453 -3.84766,0.64453 -3.90625,0 -6.21093,-2.8125 -2.28516,-2.83203 -2.28516,-7.96875 0,-2.8125 0.78125,-4.84375 0.80078,-2.05078 2.16797,-3.53515 1.26953,-1.38672 3.08594,-2.14844 1.8164,-0.78125 3.61328,-0.78125 1.89453,0 3.16406,0.39062 1.28906,0.3711 2.71484,1.15235 l 0.23438,-0.9375 h 3.4375 z m -3.67188,-3.51563 v -11.89453 q -1.46484,-0.66406 -2.73437,-0.9375 -1.25,-0.29297 -2.5,-0.29297 -3.02734,0 -4.76563,2.03125 -1.73828,2.03125 -1.73828,5.89844 0,3.67187 1.28907,5.5664 1.28906,1.89454 4.27734,1.89454 1.60156,0 3.20312,-0.60547 1.6211,-0.625 2.96875,-1.66016 z"
         style="fill:#ffffff;fill-opacity:1"
         id="path4566"
         inkscape:connector-curvature="0" />
      <path
         d="m 368.07422,354.65337 q -1.07422,0.46875 -1.95313,0.87891 -0.85937,0.41015 -2.26562,0.85937 -1.19141,0.37109 -2.59766,0.625 -1.38672,0.27344 -3.0664,0.27344 -3.16407,0 -5.76172,-0.87891 -2.57813,-0.89844 -4.49219,-2.79297 -1.875,-1.85547 -2.92969,-4.70703 -1.05469,-2.87109 -1.05469,-6.66015 0,-3.59375 1.01563,-6.42579 1.01562,-2.83203 2.92969,-4.78515 1.85547,-1.89453 4.47265,-2.89063 2.63672,-0.99609 5.83985,-0.99609 2.34375,0 4.66797,0.56641 2.34375,0.5664 5.19531,1.99218 v 4.58985 h -0.29297 q -2.40234,-2.01172 -4.76563,-2.92969 -2.36328,-0.91797 -5.05859,-0.91797 -2.20703,0 -3.98437,0.72266 -1.75782,0.70312 -3.14454,2.20703 -1.34765,1.46484 -2.10937,3.71094 -0.74219,2.22656 -0.74219,5.15625 0,3.0664 0.82031,5.27343 0.83985,2.20703 2.14844,3.59375 1.36719,1.44532 3.1836,2.14844 1.83593,0.68359 3.86718,0.68359 2.79297,0 5.23438,-0.95703 2.4414,-0.95703 4.57031,-2.87109 h 0.27344 z"
         style="fill:#ffffff;fill-opacity:1"
         id="path4568"
         inkscape:connector-curvature="0" />
      <path
         d="m 390.24219,356.76274 h -3.65235 v -2.32421 q -0.48828,0.33203 -1.32812,0.9375 -0.82031,0.58593 -1.60156,0.9375 -0.91797,0.44921 -2.10938,0.74218 -1.19141,0.3125 -2.79297,0.3125 -2.94922,0 -5,-1.95312 -2.05078,-1.95313 -2.05078,-4.98047 0,-2.48047 1.05469,-4.00391 1.07422,-1.54297 3.04687,-2.42187 1.99219,-0.87891 4.78516,-1.19141 2.79297,-0.3125 5.99609,-0.46875 v -0.5664 q 0,-1.25 -0.44922,-2.07032 -0.42968,-0.82031 -1.25,-1.28906 -0.78125,-0.44922 -1.875,-0.60547 -1.09375,-0.15625 -2.28515,-0.15625 -1.44531,0 -3.22266,0.39063 -1.77734,0.37109 -3.67187,1.09375 h -0.19532 v -3.73047 q 1.07422,-0.29297 3.10547,-0.64453 2.03125,-0.35157 4.00391,-0.35157 2.30469,0 4.00391,0.39063 1.71875,0.37109 2.96875,1.28906 1.23046,0.89844 1.875,2.32422 0.64453,1.42578 0.64453,3.53516 z m -3.65235,-5.37109 v -6.07422 q -1.67968,0.0977 -3.96484,0.29297 -2.26563,0.19531 -3.59375,0.56641 -1.58203,0.44922 -2.55859,1.40625 -0.97657,0.9375 -0.97657,2.59765 0,1.875 1.13282,2.83203 1.13281,0.9375 3.45703,0.9375 1.93359,0 3.53515,-0.74218 1.60157,-0.76172 2.96875,-1.81641 z"
         style="fill:#ffffff;fill-opacity:1"
         id="path4570"
         inkscape:connector-curvature="0" />
      <path
         d="m 410.96484,338.95024 h -0.19531 q -0.82031,-0.19531 -1.60156,-0.27343 -0.76172,-0.0977 -1.81641,-0.0977 -1.69922,0 -3.28125,0.76172 -1.58203,0.74219 -3.04687,1.93359 v 15.48828 h -3.67188 v -21.8164 h 3.67188 v 3.22265 q 2.1875,-1.75781 3.84765,-2.48046 1.67969,-0.74219 3.41797,-0.74219 0.95703,0 1.38672,0.0586 0.42969,0.0391 1.28906,0.17578 z"
         style="fill:#ffffff;fill-opacity:1"
         id="path4572"
         inkscape:connector-curvature="0" />
      <path
         d="m 433.67969,356.76274 h -19.6875 v -4.08203 q 2.05078,-1.75781 4.10156,-3.51562 2.07031,-1.75781 3.84766,-3.4961 3.75,-3.63281 5.13671,-5.76171 1.38672,-2.14844 1.38672,-4.62891 0,-2.26563 -1.5039,-3.53516 -1.48438,-1.28906 -4.16016,-1.28906 -1.77734,0 -3.84766,0.625 -2.07031,0.625 -4.04296,1.91406 h -0.19532 v -4.10156 q 1.38672,-0.68359 3.69141,-1.25 2.32422,-0.56641 4.49219,-0.56641 4.47265,0 7.01172,2.16797 2.53906,2.14844 2.53906,5.83985 0,1.66015 -0.42969,3.10547 -0.41016,1.42578 -1.23047,2.71484 -0.76172,1.21094 -1.79687,2.38281 -1.01563,1.17188 -2.48047,2.59766 -2.08985,2.05078 -4.31641,3.98437 -2.22656,1.91407 -4.16015,3.55469 h 15.64453 z"
         style="fill:#ffffff;fill-opacity:1"
         id="path4574"
         inkscape:connector-curvature="0" />
      <path
         d="m 459.24609,336.46978 q 0,1.93359 -0.68359,3.59375 -0.66406,1.64062 -1.875,2.85156 -1.50391,1.5039 -3.55469,2.26562 -2.05078,0.74219 -5.17578,0.74219 h -3.86719 v 10.83984 h -3.86718 v -29.08203 h 7.89062 q 2.61719,0 4.43359,0.44922 1.81641,0.42969 3.22266,1.36719 1.66016,1.11328 2.55859,2.77344 0.91797,1.66015 0.91797,4.19922 z m -4.02343,0.0976 q 0,-1.5039 -0.52735,-2.61719 -0.52734,-1.11328 -1.60156,-1.8164 -0.9375,-0.60547 -2.14844,-0.85938 -1.1914,-0.27343 -3.02734,-0.27343 h -3.82813 v 11.62109 h 3.26172 q 2.34375,0 3.8086,-0.41016 1.46484,-0.42968 2.38281,-1.34765 0.91797,-0.9375 1.28906,-1.97266 0.39063,-1.03516 0.39063,-2.32422 z"
         style="fill:#ffffff;fill-opacity:1"
         id="path4576"
         inkscape:connector-curvature="0" />
      <path
         d="m 480.08594,356.76274 h -3.65235 v -2.32421 q -0.48828,0.33203 -1.32812,0.9375 -0.82031,0.58593 -1.60156,0.9375 -0.91797,0.44921 -2.10938,0.74218 -1.19141,0.3125 -2.79297,0.3125 -2.94922,0 -5,-1.95312 -2.05078,-1.95313 -2.05078,-4.98047 0,-2.48047 1.05469,-4.00391 1.07422,-1.54297 3.04687,-2.42187 1.99219,-0.87891 4.78516,-1.19141 2.79297,-0.3125 5.99609,-0.46875 v -0.5664 q 0,-1.25 -0.44922,-2.07032 -0.42968,-0.82031 -1.25,-1.28906 -0.78125,-0.44922 -1.875,-0.60547 -1.09375,-0.15625 -2.28515,-0.15625 -1.44531,0 -3.22266,0.39063 -1.77734,0.37109 -3.67187,1.09375 h -0.19532 v -3.73047 q 1.07422,-0.29297 3.10547,-0.64453 2.03125,-0.35157 4.00391,-0.35157 2.30469,0 4.00391,0.39063 1.71875,0.37109 2.96875,1.28906 1.23046,0.89844 1.875,2.32422 0.64453,1.42578 0.64453,3.53516 z m -3.65235,-5.37109 v -6.07422 q -1.67968,0.0977 -3.96484,0.29297 -2.26563,0.19531 -3.59375,0.56641 -1.58203,0.44922 -2.55859,1.40625 -0.97657,0.9375 -0.97657,2.59765 0,1.875 1.13282,2.83203 1.13281,0.9375 3.45703,0.9375 1.93359,0 3.53515,-0.74218 1.60157,-0.76172 2.96875,-1.81641 z"
         style="fill:#ffffff;fill-opacity:1"
         id="path4578"
         inkscape:connector-curvature="0" />
      <path
         d="m 500.80859,338.95024 h -0.19531 q -0.82031,-0.19531 -1.60156,-0.27343 -0.76172,-0.0977 -1.81641,-0.0977 -1.69922,0 -3.28125,0.76172 -1.58203,0.74219 -3.04687,1.93359 v 15.48828 h -3.67188 v -21.8164 h 3.67188 v 3.22265 q 2.1875,-1.75781 3.84765,-2.48046 1.67969,-0.74219 3.41797,-0.74219 0.95703,0 1.38672,0.0586 0.42969,0.0391 1.28906,0.17578 z"
         style="fill:#ffffff;fill-opacity:1"
         id="path4580"
         inkscape:connector-curvature="0" />
      <path
         d="m 524.10937,356.76274 h -4.84375 l -8.75,-9.55078 -2.38281,2.26563 v 7.28515 h -3.67187 v -30.39062 h 3.67187 v 19.49219 l 10.60547,-10.91797 h 4.62891 l -10.13672,10.07812 z"
         style="fill:#ffffff;fill-opacity:1"
         id="path4582"
         inkscape:connector-curvature="0" />
      <path
         d="m 534.42187,327.68071 -0.50781,21.07422 h -3.32031 l -0.54688,-21.07422 z m -0.19531,29.08203 h -3.98437 v -4.12109 h 3.98437 z"
         style="fill:#ffffff;fill-opacity:1"
         id="path4584"
         inkscape:connector-curvature="0" />
    </g>
    <g
       id="g4690"
       transform="matrix(3.9492941,0,0,3.9492941,78.448803,188.13389)">
      <g
         transform="translate(0,-277.95001)"
         style="display:none"
         id="layer1-7"
         inkscape:label="Ref Image">
        <image
           width="81.280006"
           height="45.635334"
           preserveAspectRatio="none"
           xlink:href="file:///C:/Users/Sean/Pictures/img%20Resources/smartcar.jpg"
           id="image4493"
           x="55.60218"
           y="114.93623"
           sodipodi:absref="C:\Users\Sean\Pictures\img Resources\smartcar.jpg" />
      </g>
      <g
         transform="translate(0,-277.95001)"
         style="display:inline"
         inkscape:label="Outline"
         id="layer2">
        <path
           inkscape:connector-curvature="0"
           id="path4497"
           d="m 6.2396814,280.74041 c 0,0 0.6496591,0.4522 0.9201588,0.69035 0.2704612,0.23819 0.8508776,0.78704 1.0563905,1.03675 0.2055853,0.24963 0.236885,0.32737 0.2804647,0.43246 0.043541,0.10516 0.1768442,0.64938 0.2450988,1.01384 0.068261,0.36446 0.1838392,1.04161 0.1724218,1.10403 -0.011413,0.0624 -0.010714,0.0886 -0.010714,0.0886 0,0 0.2105857,0.31823 0.2540845,0.48385 0.043454,0.16566 0.074395,0.28745 0.078802,0.39362 0.00435,0.10622 -0.019671,0.24576 -0.044219,0.30527 -0.02457,0.0597 -0.07442,0.13393 -0.1383436,0.20381 -0.063922,0.0699 -0.06195,0.0583 -0.075777,0.10137 -0.013828,0.0432 -0.004,0.11108 -0.039031,0.18371 -0.034994,0.0726 -0.1025202,0.1819 -0.1888958,0.2755 -0.086356,0.0937 -0.2987707,0.30846 -0.3413278,0.31304 -0.042514,0.004 -0.08981,-0.0405 -0.08981,-0.0405 0,0 0.308179,-0.30176 0.3638722,-0.59804 0.0557,-0.29629 -0.015801,-0.56032 -0.2498387,-0.77615 -0.2342915,-0.21558 -0.5092542,-0.28607 -0.7823293,-0.23037 -0.2730635,0.0557 -0.4527635,0.19804 -0.5207725,0.24374 -0.067984,0.0457 -0.1418048,0.13554 -0.1718923,0.1317 -0.030192,-0.003 -2.1038058,-2.02118 -2.1038058,-2.02118 l -0.024798,0.0238 -0.13348,-0.12258 c 0,0 0.2640035,-0.31446 0.3549745,-0.54114 0.090972,-0.22669 0.123883,-0.68587 -0.2150814,-1.01627 -0.338599,-0.33077 -0.7720058,-0.35824 -1.0736764,-0.10327 -0.3016485,0.2548 -0.2499667,0.23977 -0.2499667,0.23977 0,0 -0.016065,0.003 -0.017399,-0.0481 -0.00133,-0.0509 0.2215268,-0.26077 0.2215268,-0.26077 0,0 0.1687654,-0.19002 0.2253309,-0.24138 0.056559,-0.0514 0.2641518,-0.1917 0.351021,-0.23814 0.086922,-0.0465 0.099052,-0.0494 0.099052,-0.0494 l 0.1630174,-0.004 c 0,0 0.1147312,-0.10442 0.1703751,-0.15981 0.055655,-0.0555 0.2258005,-0.22338 0.2843846,-0.26007 0.058546,-0.0366 0.3259511,-0.16798 0.4503655,-0.21375 0.1244156,-0.0459 0.3783876,-0.12768 0.4555461,-0.14034 0.077109,-0.0126 0.2610892,-0.0591 0.2773884,-0.0596 0.016126,4.3e-4 0.010155,10e-4 0.010155,10e-4 l 0.00183,-0.12451 z"
           style="fill:none;stroke:#fefefe;stroke-width:0.21177706;stroke-linecap:butt;stroke-linejoin:miter;stroke-miterlimit:4;stroke-dasharray:none;stroke-opacity:1" />
      </g>
      <g
         transform="translate(0,-277.95001)"
         style="display:inline"
         inkscape:label="Windows"
         id="layer3">
        <path
           inkscape:connector-curvature="0"
           id="path4500"
           d="m 8.5576105,283.91694 c 0,0 -0.1159676,-0.62972 -0.1842947,-0.80941 -0.068309,-0.17972 -0.1649015,-0.37992 -0.2961598,-0.53342 -0.1311991,-0.15359 -0.4449684,-0.48371 -0.6170397,-0.63777 -0.1716352,-0.15452 -0.3087727,-0.26489 -0.4039211,-0.28864 -0.095263,-0.0235 -0.2341301,-0.0311 -0.4300742,0.0849 -0.1959845,0.11635 -0.2251532,0.12364 -0.2370883,0.16647 -0.011872,0.0427 0.1006669,0.16905 0.1467804,0.24793 0.046126,0.0788 0.090867,0.16933 0.095077,0.20517 0.00414,0.036 0.00179,0.0686 0.00179,0.0686 0,0 0.3934251,0.44748 0.5043841,0.57206 0.1109642,0.12457 0.7149091,0.82655 0.7922864,0.91609 0.077415,0.0896 0.2779155,0.33442 0.2779155,0.33442 l -0.01536,-0.0879 c 0,0 0.1558313,-0.15453 0.2176902,-0.15942 0.061915,-0.005 0.063433,-0.006 0.063433,-0.006 z"
           style="fill:none;stroke:#fefefe;stroke-width:0.07476814;stroke-linecap:butt;stroke-linejoin:miter;stroke-miterlimit:4;stroke-dasharray:none;stroke-opacity:1" />
        <path
           inkscape:connector-curvature="0"
           id="path4504"
           d="m 7.3176875,281.82148 -0.5959274,0.69829 0.070109,0.0753 0.6045266,-0.71241 z"
           style="fill:#ffffff;fill-opacity:1;stroke:#fefefe;stroke-width:0.07476814;stroke-linecap:butt;stroke-linejoin:miter;stroke-miterlimit:4;stroke-dasharray:none;stroke-opacity:1" />
        <path
           inkscape:connector-curvature="0"
           id="path4506"
           d="m 8.4730518,283.98947 0.085602,0.063 c 0,0 0.046019,0.0845 0.023572,0.15082 -0.022529,0.0664 -0.059746,0.14147 -0.0812,0.15937 -0.021418,0.0179 -0.078171,0.0542 -0.1517227,0.0202 -0.073568,-0.0339 -0.1249153,-0.11004 -0.1420939,-0.13954"
           style="fill:none;stroke:#fefefe;stroke-width:0.07476814;stroke-linecap:butt;stroke-linejoin:miter;stroke-miterlimit:4;stroke-dasharray:none;stroke-opacity:1" />
        <path
           inkscape:connector-curvature="0"
           id="path4508"
           d="m 9.1724647,285.65847 c 0,0 -0.055112,-0.11304 -0.068724,-0.13224 -0.013828,-0.0189 -0.024126,-0.0484 -0.038036,-0.0303 -0.01419,0.0183 -0.0394,0.11551 -0.031868,0.27882 0.00753,0.16331 0.031245,0.25915 0.054195,0.3256 0.022937,0.0664 0.028427,0.0908 0.05741,0.13747 0.029001,0.0465 0.043978,0.0575 0.043978,0.0575"
           style="fill:none;stroke:#fefefe;stroke-width:0.07476814;stroke-linecap:butt;stroke-linejoin:miter;stroke-miterlimit:4;stroke-dasharray:none;stroke-opacity:1" />
      </g>
      <g
         transform="translate(0,-277.95001)"
         style="display:inline"
         inkscape:label="Wheels"
         id="layer4">
        <path
           inkscape:connector-curvature="0"
           id="path4511"
           d="m 3.5876453,282.61882 c 0,0 -0.1885537,0.24427 -0.1805803,0.46144 0.00799,0.21713 0.098611,0.41824 0.1697596,0.49268 0.07089,0.0748 0.1680643,0.20479 0.3761305,0.26758 0.2081385,0.0627 0.431965,0.0636 0.5208071,0.0221 0.088894,-0.0416 0.081925,-0.0438 0.081925,-0.0438"
           style="fill:none;fill-opacity:1;stroke:#ffffff;stroke-width:0.21177706;stroke-linecap:butt;stroke-linejoin:miter;stroke-miterlimit:4;stroke-dasharray:none;stroke-opacity:1" />
        <path
           inkscape:connector-curvature="0"
           id="path4515"
           d="m 4.4295592,282.77659 c 0,0 -0.1141595,0.14157 -0.1345384,0.1421 -0.020489,9.9e-4 -0.041543,-0.007 -0.056676,-0.0309 -0.015303,-0.0233 -0.030182,-0.18724 -0.016628,-0.19903 0.01358,-0.0119 0.032473,-0.0201 0.1194212,0.0153 0.086982,0.0349 0.093673,0.0412 0.096329,0.0511 0.0025,0.0109 -0.00802,0.0219 -0.00802,0.0219 z"
           style="fill:#ffffff;fill-opacity:1;stroke:#ffffff;stroke-width:0.0454473;stroke-linecap:butt;stroke-linejoin:miter;stroke-miterlimit:4;stroke-dasharray:none;stroke-opacity:1" />
        <path
           inkscape:connector-curvature="0"
           id="path4515-0"
           d="m 4.5928799,283.01939 c 0,0 -0.178855,0.0315 -0.1945728,0.0185 -0.016272,-0.0124 -0.025877,-0.0333 -0.022627,-0.0604 0.00378,-0.0277 0.099973,-0.16104 0.1179349,-0.16099 0.017803,7.2e-4 0.037602,0.006 0.080531,0.0897 0.042641,0.0837 0.043576,0.0929 0.039166,0.1019 -0.00425,0.01 -0.020341,0.0113 -0.020341,0.0113 z"
           style="fill:#ffffff;fill-opacity:1;stroke:#ffffff;stroke-width:0.0454473;stroke-linecap:butt;stroke-linejoin:miter;stroke-miterlimit:4;stroke-dasharray:none;stroke-opacity:1" />
        <path
           inkscape:transform-center-y="0.0041450386"
           inkscape:transform-center-x="0.026772515"
           inkscape:connector-curvature="0"
           id="path4515-0-7"
           d="m 4.5710262,283.30704 c 0,0 -0.152516,-0.0988 -0.1551805,-0.11907 -0.00267,-0.0202 0.00304,-0.042 0.024586,-0.0597 0.021488,-0.0178 0.1825738,-0.0499 0.1957065,-0.0375 0.013085,0.0127 0.023015,0.0306 -0.00206,0.12062 -0.02545,0.0903 -0.031044,0.0976 -0.040432,0.10147 -0.00968,0.004 -0.02263,-0.005 -0.02263,-0.005 z"
           style="fill:#ffffff;fill-opacity:1;stroke:#ffffff;stroke-width:0.0454473;stroke-linecap:butt;stroke-linejoin:miter;stroke-miterlimit:4;stroke-dasharray:none;stroke-opacity:1" />
        <path
           inkscape:transform-center-y="0.011357861"
           inkscape:transform-center-x="-0.013240509"
           inkscape:connector-curvature="0"
           id="path4515-0-8"
           d="m 4.3670324,283.55724 c 0,0 -0.055464,-0.17331 -0.044697,-0.19071 0.010743,-0.0172 0.028988,-0.0306 0.0568,-0.0306 0.027719,4.4e-4 0.1727386,0.0774 0.1751116,0.0953 0.0024,0.0179 -0.00109,0.0383 -0.077949,0.092 -0.076831,0.0536 -0.08582,0.0558 -0.095442,0.0528 -0.00953,-0.003 -0.013713,-0.0188 -0.013713,-0.0188 z"
           style="fill:#ffffff;fill-opacity:1;stroke:#ffffff;stroke-width:0.0454473;stroke-linecap:butt;stroke-linejoin:miter;stroke-miterlimit:4;stroke-dasharray:none;stroke-opacity:1" />
        <path
           inkscape:connector-curvature="0"
           id="path4515-0-2"
           d="m 4.0692381,283.56729 c 0,0 0.07216,-0.16704 0.091655,-0.17303 0.019569,-0.006 0.041876,-0.003 0.062875,0.0143 0.020742,0.0186 0.079071,0.17233 0.069162,0.18734 -0.00999,0.0151 -0.025965,0.0279 -0.1190858,0.0179 -0.093249,-0.01 -0.1013804,-0.0136 -0.106404,-0.0237 -0.00569,-0.008 0.00188,-0.0232 0.00188,-0.0232 z"
           style="fill:#ffffff;fill-opacity:1;stroke:#ffffff;stroke-width:0.0454473;stroke-linecap:butt;stroke-linejoin:miter;stroke-miterlimit:4;stroke-dasharray:none;stroke-opacity:1" />
        <path
           inkscape:connector-curvature="0"
           id="path4515-0-9"
           d="m 3.8415319,283.40893 c 0,0 0.1593837,-0.0874 0.1784293,-0.0801 0.018814,0.007 0.035763,0.0223 0.040588,0.0502 0.00526,0.0275 -0.043305,0.18465 -0.060326,0.19038 -0.017024,0.006 -0.037701,0.006 -0.1047829,-0.0594 -0.067379,-0.0652 -0.070516,-0.0743 -0.069668,-0.084 0.00146,-0.0106 0.015629,-0.017 0.015629,-0.017 z"
           style="fill:#ffffff;fill-opacity:1;stroke:#ffffff;stroke-width:0.0454473;stroke-linecap:butt;stroke-linejoin:miter;stroke-miterlimit:4;stroke-dasharray:none;stroke-opacity:1" />
        <path
           inkscape:connector-curvature="0"
           id="path4515-0-5"
           d="m 4.1406692,282.73349 c 0,0 -0.00298,0.18202 -0.018704,0.195 -0.015711,0.0131 -0.037257,0.0197 -0.06362,0.0108 -0.026341,-0.008 -0.138702,-0.12904 -0.1353395,-0.14662 0.00343,-0.0177 0.01333,-0.036 0.1032526,-0.062 0.089941,-0.0261 0.099132,-0.0253 0.1072725,-0.0194 0.00789,0.006 0.0071,0.0222 0.0071,0.0222 z"
           style="fill:#ffffff;fill-opacity:1;stroke:#ffffff;stroke-width:0.0454473;stroke-linecap:butt;stroke-linejoin:miter;stroke-miterlimit:4;stroke-dasharray:none;stroke-opacity:1" />
        <path
           inkscape:connector-curvature="0"
           id="path4515-0-5-0"
           d="m 3.866863,282.84652 c 0,0 0.1206075,0.13609 0.117761,0.15635 -0.00274,0.02 -0.0142,0.0397 -0.039563,0.051 -0.025444,0.0113 -0.18922,-9.1e-4 -0.1984991,-0.0172 -0.00968,-0.015 -0.014363,-0.0355 0.034222,-0.11569 0.048636,-0.0803 0.055976,-0.0859 0.066032,-0.0869 0.00988,-10e-4 0.020672,0.0114 0.020672,0.0114 z"
           style="fill:#ffffff;fill-opacity:1;stroke:#ffffff;stroke-width:0.0454473;stroke-linecap:butt;stroke-linejoin:miter;stroke-miterlimit:4;stroke-dasharray:none;stroke-opacity:1" />
        <path
           inkscape:connector-curvature="0"
           id="path4515-0-5-2"
           d="m 3.7437586,283.11611 c 0,0 0.1787184,0.0324 0.1890169,0.0498 0.00987,0.0181 0.013425,0.04 4.383e-4,0.0646 -0.012939,0.0246 -0.1489697,0.11695 -0.1658334,0.11076 -0.016864,-0.006 -0.033387,-0.0186 -0.044714,-0.11213 -0.011555,-0.0931 -0.00915,-0.10211 -0.00198,-0.1092 0.00762,-0.007 0.022966,-0.003 0.022966,-0.003 z"
           style="fill:#ffffff;fill-opacity:1;stroke:#ffffff;stroke-width:0.0454473;stroke-linecap:butt;stroke-linejoin:miter;stroke-miterlimit:4;stroke-dasharray:none;stroke-opacity:1" />
        <path
           inkscape:connector-curvature="0"
           id="path4515-9"
           d="m 8.1128165,286.27139 c 0,0 -0.1308437,0.12624 -0.1511295,0.12423 -0.020214,-0.002 -0.040242,-0.0122 -0.052125,-0.038 -0.012412,-0.0249 -0.00671,-0.18954 0.0082,-0.19954 0.014887,-0.01 0.034714,-0.0158 0.1167828,0.0294 0.081999,0.0455 0.08785,0.0527 0.089337,0.0625 0.00143,0.01 -0.010643,0.0207 -0.010643,0.0207 z"
           style="fill:#ffffff;fill-opacity:1;stroke:#ffffff;stroke-width:0.0454473;stroke-linecap:butt;stroke-linejoin:miter;stroke-miterlimit:4;stroke-dasharray:none;stroke-opacity:1" />
        <path
           inkscape:connector-curvature="0"
           id="path4515-0-27"
           d="m 8.2447418,286.53266 c 0,0 -0.1813733,0.008 -0.1953655,-0.006 -0.014193,-0.0147 -0.022005,-0.036 -0.014886,-0.0627 0.00712,-0.0269 0.1191804,-0.14732 0.1370267,-0.14502 0.017913,0.002 0.036459,0.0118 0.068536,0.0992 0.031951,0.0883 0.031701,0.0975 0.026282,0.10592 -0.0051,0.008 -0.021655,0.008 -0.021655,0.008 z"
           style="fill:#ffffff;fill-opacity:1;stroke:#ffffff;stroke-width:0.0454473;stroke-linecap:butt;stroke-linejoin:miter;stroke-miterlimit:4;stroke-dasharray:none;stroke-opacity:1" />
        <path
           inkscape:transform-center-y="0.0092128933"
           inkscape:transform-center-x="0.02137801"
           inkscape:connector-curvature="0"
           id="path4515-0-7-0"
           d="m 8.1873663,286.81534 c 0,0 -0.1391032,-0.11706 -0.1395797,-0.13712 -1.925e-4,-0.0204 0.00832,-0.0414 0.031743,-0.0562 0.02358,-0.0149 0.1873467,-0.0267 0.1988631,-0.0129 0.011506,0.0139 0.019388,0.0329 -0.017052,0.11946 -0.036435,0.0865 -0.042943,0.0931 -0.052716,0.0956 -0.00968,0.002 -0.021327,-0.01 -0.021327,-0.01 z"
           style="fill:#ffffff;fill-opacity:1;stroke:#ffffff;stroke-width:0.0454473;stroke-linecap:butt;stroke-linejoin:miter;stroke-miterlimit:4;stroke-dasharray:none;stroke-opacity:1" />
        <path
           inkscape:transform-center-y="0.005848424"
           inkscape:transform-center-x="-0.017802793"
           inkscape:connector-curvature="0"
           id="path4515-0-8-4"
           d="m 7.9538889,287.03818 c 0,0 -0.033486,-0.17891 -0.020677,-0.19479 0.012802,-0.016 0.03257,-0.0268 0.060111,-0.0232 0.027735,0.003 0.1617494,0.0984 0.1618747,0.1165 1.426e-4,0.0181 -0.0058,0.0378 -0.088754,0.0815 -0.08292,0.0438 -0.092104,0.0447 -0.1012299,0.0404 -0.00917,-0.004 -0.011774,-0.0199 -0.011774,-0.0199 z"
           style="fill:#ffffff;fill-opacity:1;stroke:#ffffff;stroke-width:0.0454473;stroke-linecap:butt;stroke-linejoin:miter;stroke-miterlimit:4;stroke-dasharray:none;stroke-opacity:1" />
        <path
           inkscape:connector-curvature="0"
           id="path4515-0-2-7"
           d="m 7.6571712,287.01101 c 0,0 0.092331,-0.15674 0.1124116,-0.16024 0.020259,-0.004 0.041905,0.002 0.060528,0.0222 0.018661,0.0206 0.057107,0.18083 0.045413,0.19449 -0.011746,0.0138 -0.029268,0.0246 -0.1203378,0.003 -0.091188,-0.0214 -0.098613,-0.0274 -0.1027591,-0.0364 -0.00379,-0.01 0.00473,-0.0228 0.00473,-0.0228 z"
           style="fill:#ffffff;fill-opacity:1;stroke:#ffffff;stroke-width:0.0454473;stroke-linecap:butt;stroke-linejoin:miter;stroke-miterlimit:4;stroke-dasharray:none;stroke-opacity:1" />
        <path
           inkscape:connector-curvature="0"
           id="path4515-0-9-1"
           d="m 7.4508851,286.82551 c 0,0 0.1689751,-0.0668 0.1869567,-0.0571 0.01873,0.008 0.031893,0.0274 0.034116,0.0548 0.00188,0.0278 -0.065877,0.17781 -0.083478,0.18138 -0.017402,0.002 -0.038068,7.2e-4 -0.096626,-0.0719 -0.05847,-0.0734 -0.061174,-0.0822 -0.058697,-0.0921 0.00215,-0.01 0.017778,-0.0152 0.017778,-0.0152 z"
           style="fill:#ffffff;fill-opacity:1;stroke:#ffffff;stroke-width:0.0454473;stroke-linecap:butt;stroke-linejoin:miter;stroke-miterlimit:4;stroke-dasharray:none;stroke-opacity:1" />
        <path
           inkscape:connector-curvature="0"
           id="path4515-0-5-1"
           d="m 7.8315244,286.1926 c 0,0 -0.025546,0.18022 -0.042768,0.19117 -0.017235,0.011 -0.039387,0.0148 -0.064412,0.002 -0.025041,-0.0119 -0.1217604,-0.14519 -0.1161074,-0.16234 0.00558,-0.017 0.017665,-0.0339 0.1101489,-0.0486 0.092478,-0.0147 0.1015004,-0.0128 0.1088053,-0.005 0.00733,0.007 0.00434,0.0229 0.00434,0.0229 z"
           style="fill:#ffffff;fill-opacity:1;stroke:#ffffff;stroke-width:0.0454473;stroke-linecap:butt;stroke-linejoin:miter;stroke-miterlimit:4;stroke-dasharray:none;stroke-opacity:1" />
        <path
           inkscape:connector-curvature="0"
           id="path4515-0-5-0-4"
           d="m 7.5458217,286.27061 c 0,0 0.1026865,0.15017 0.097405,0.16987 -0.00536,0.0198 -0.018993,0.0375 -0.045613,0.0456 -0.026695,0.008 -0.1876403,-0.0246 -0.195185,-0.0404 -0.00774,-0.016 -0.00993,-0.0369 0.04831,-0.11052 0.05823,-0.0735 0.066228,-0.0781 0.07629,-0.0781 0.00986,5e-5 0.018851,0.014 0.018851,0.014 z"
           style="fill:#ffffff;fill-opacity:1;stroke:#ffffff;stroke-width:0.0454473;stroke-linecap:butt;stroke-linejoin:miter;stroke-miterlimit:4;stroke-dasharray:none;stroke-opacity:1" />
        <path
           inkscape:connector-curvature="0"
           id="path4515-0-5-2-5"
           d="m 7.3902097,286.52277 c 0,0 0.1734565,0.0538 0.1815157,0.0727 0.00779,0.019 0.0084,0.0414 -0.0075,0.0641 -0.015897,0.0227 -0.1623297,0.0974 -0.1782854,0.0892 -0.015975,-0.008 -0.030385,-0.0231 -0.030519,-0.11673 7.51e-5,-0.0937 0.00356,-0.10252 0.011527,-0.10854 0.00772,-0.005 0.023326,-0.001 0.023326,-0.001 z"
           style="fill:#ffffff;fill-opacity:1;stroke:#ffffff;stroke-width:0.0454473;stroke-linecap:butt;stroke-linejoin:miter;stroke-miterlimit:4;stroke-dasharray:none;stroke-opacity:1" />
        <path
           sodipodi:nodetypes="ccc"
           inkscape:connector-curvature="0"
           id="path4646"
           d="m 7.1827638,286.23887 c 0,0 -0.2604109,0.45976 0.1798209,0.88801 0.4614968,0.43602 0.8785396,0.0963 0.8785396,0.0963"
           style="display:inline;fill:none;fill-opacity:1;stroke:#ffffff;stroke-width:0.21177706;stroke-linecap:butt;stroke-linejoin:miter;stroke-miterlimit:4;stroke-dasharray:none;stroke-opacity:1" />
      </g>
      <g
         transform="translate(0,-277.95001)"
         style="display:inline"
         inkscape:label="Stripe"
         id="layer5">
        <path
           inkscape:connector-curvature="0"
           id="path4650"
           d="m 8.8875286,285.02781 -0.2204914,-0.31325 c 0,0 -0.04342,-0.69025 -0.1366828,-1.08091 -0.093272,-0.39063 -0.1665952,-0.63612 -0.224705,-0.74094 -0.058102,-0.10486 -0.2164094,-0.33657 -0.4582209,-0.58456 -0.2417955,-0.24801 -0.5705501,-0.5514 -0.7059427,-0.61734 -0.1355224,-0.0659 -0.3154252,-0.0607 -0.5200683,0.0507 -0.204705,0.11174 -0.4829018,0.32484 -0.5710042,0.48439 -0.088116,0.15956 -0.2677189,0.96663 -0.2930639,1.3211 -0.025336,0.35445 -0.032871,0.41939 0.00492,0.54095 0.037769,0.12158 0.3103939,0.48899 0.4677483,0.68372 0.1573479,0.19473 0.8009593,0.98712 0.8009593,0.98712 0,0 -0.075227,0.032 -0.124407,0.008 -0.049083,-0.0241 -0.1249081,-0.10083 -0.2314655,-0.21143 -0.1068433,-0.1104 -0.9359863,-1.03447 -0.9835726,-1.08869 -0.0477,-0.0542 -0.1569847,-0.18089 -0.2158089,-0.31346 -0.058822,-0.13258 -0.045225,-0.31792 -0.028278,-0.46404 0.016953,-0.14613 0.088673,-0.84401 0.098881,-0.98302 0.010198,-0.13899 0.061832,-0.6352 0.059659,-0.71837 -0.00216,-0.0831 0.028114,-0.24816 0.00337,-0.31225 -0.024738,-0.0641 -0.070172,-0.12534 -0.070172,-0.12534 0,0 0.1026202,-0.0466 0.2488237,-0.10137 0.1462192,-0.0548 0.5312303,-0.15269 0.7703851,-0.18208 0.2391651,-0.0294 0.2995414,-0.0308 0.2995414,-0.0308 0,0 0.7000242,0.57027 1.008702,0.89571 0.3086052,0.32551 0.5035995,0.54267 0.5797487,0.71074 0.076201,0.16801 0.2126665,0.67916 0.2565619,0.94625 0.043891,0.26709 0.1364101,0.80573 0.1547104,0.97636 0.018301,0.17064 0.029942,0.26281 0.029942,0.26281 z"
           style="opacity:1;fill:#ffffff;fill-opacity:1;stroke:#fefefe;stroke-width:0.02590008;stroke-linecap:butt;stroke-linejoin:miter;stroke-miterlimit:4;stroke-dasharray:none;stroke-opacity:1" />
        <path
           inkscape:connector-curvature="0"
           id="path4652"
           d="m 8.4374512,284.62481 c 0,0 -0.2699635,0.40604 -0.6089043,0.67002 -0.3389328,0.26398 -0.4864671,0.34158 -0.641986,0.40272 -0.1555073,0.061 -0.1555073,0.061 -0.1555073,0.061"
           style="fill:none;stroke:#ffffff;stroke-width:0.02585935px;stroke-linecap:butt;stroke-linejoin:miter;stroke-opacity:1" />
        <path
           sodipodi:nodetypes="ccccsccc"
           inkscape:connector-curvature="0"
           id="path4654"
           d="m 7.866881,285.25577 c 0,0 -0.4757198,-0.69098 -0.6671632,-0.95419 -0.1914306,-0.2632 -0.6594136,-0.89357 -0.8603196,-1.15943 -0.1797466,-0.23784 -0.2813992,-0.3639 -0.2813992,-0.3639 0,0 0.5682297,0.74399 0.7441329,0.98311 0.1715526,0.23326 0.5637865,0.80242 0.7680142,1.11385 0.2042205,0.31144 0.2430428,0.42303 0.2430428,0.42303 z"
           style="fill:#ffffff;fill-opacity:1;stroke:#ffffff;stroke-width:0.02585935px;stroke-linecap:butt;stroke-linejoin:miter;stroke-opacity:1" />
      </g>
      <g
         style="display:inline"
         transform="translate(0,-277.95001)"
         inkscape:label="Target"
         id="layer6">
        <path
           inkscape:connector-curvature="0"
           id="path4661"
           d="m 9.6032337,288.21603 a 2.2201055,0.91520974 0 0 0 -2.2201054,0.91521 2.2201055,0.91520974 0 0 0 2.2201054,0.91522 2.2201055,0.91520974 0 0 0 2.2201053,-0.91522 2.2201055,0.91520974 0 0 0 -2.2201053,-0.91521 z m -0.6055411,0.43915 h 0.5794445 c 0.1281299,0 0.2366638,0.004 0.3255898,0.0124 0.08893,0.007 0.1678241,0.0204 0.2366701,0.0376 0.08128,0.0204 0.143888,0.046 0.187873,0.0765 0.04494,0.0305 0.06741,0.0691 0.06741,0.11572 0,0.0355 -0.01674,0.0685 -0.0502,0.099 -0.03252,0.0301 -0.07839,0.0564 -0.137678,0.0786 -0.07363,0.0276 -0.160648,0.0484 -0.2610481,0.0624 -0.1004,0.0136 -0.2271112,0.0204 -0.3801021,0.0204 H 9.2816721 v 0.29878 H 8.9976926 Z m 0.2839872,0.0915 v 0.32029 H 9.521227 c 0.1147427,0 0.2079567,-0.004 0.2796709,-0.0113 0.07171,-0.007 0.130023,-0.0203 0.174965,-0.0372 0.04494,-0.0172 0.07651,-0.0354 0.09467,-0.0545 0.01912,-0.019 0.02869,-0.0404 0.02869,-0.0641 0,-0.0276 -0.01291,-0.0517 -0.03873,-0.0721 -0.02582,-0.0204 -0.06503,-0.0371 -0.1176169,-0.05 -0.0459,-0.0111 -0.09849,-0.019 -0.15778,-0.0236 -0.058327,-0.005 -0.1324397,-0.007 -0.2223217,-0.007 z"
           style="fill:#ffffff;fill-opacity:1;stroke:#ffffff;stroke-width:0.0205176;stroke-miterlimit:4;stroke-dasharray:none;stroke-opacity:1" />
        <ellipse
           ry="1.3190589"
           rx="3.1997585"
           cy="289.19971"
           cx="9.6367207"
           id="path4661-7"
           style="fill:none;fill-opacity:1;stroke:#ffffff;stroke-width:0.26185098;stroke-miterlimit:4;stroke-dasharray:none;stroke-opacity:1" />
      </g>
      <g
         transform="translate(0,6.35)"
         inkscape:label="Trail"
         id="layer7">
        <path
           sodipodi:nodetypes="cccc"
           inkscape:connector-curvature="0"
           id="path4698"
           d="M 3.8534448,-2.7176088 C 4.2835375,-3.3132985 4.752308,-3.4825553 5.228288,-3.5723225 3.849102,-4.5492376 2.4095003,-5.0721912 0.49465105,-5.6131696 2.0438763,-4.7938241 3.15119,-4.2950371 3.8534448,-2.7176088 Z"
           style="opacity:1;fill:#fef8f8;fill-opacity:1;stroke:#ffffff;stroke-width:0.06848512;stroke-linecap:butt;stroke-linejoin:miter;stroke-miterlimit:4;stroke-dasharray:none;stroke-opacity:1" />
      </g>
    </g>
  </g>
</svg>
