<?xml version="1.0" encoding="UTF-8" standalone="no"?>
<!-- Created with Inkscape (http://www.inkscape.org/) -->

<svg
   xmlns:dc="http://purl.org/dc/elements/1.1/"
   xmlns:cc="http://creativecommons.org/ns#"
   xmlns:rdf="http://www.w3.org/1999/02/22-rdf-syntax-ns#"
   xmlns:svg="http://www.w3.org/2000/svg"
   xmlns="http://www.w3.org/2000/svg"
   xmlns:xlink="http://www.w3.org/1999/xlink"
   xmlns:sodipodi="http://sodipodi.sourceforge.net/DTD/sodipodi-0.dtd"
   xmlns:inkscape="http://www.inkscape.org/namespaces/inkscape"
   width="210mm"
   height="118mm"
   viewBox="0 0 210 118"
   version="1.1"
   id="svg4511"
   inkscape:version="0.92.1 r15371"
   sodipodi:docname="Success.svg">
  <defs
     id="defs4505">
    <linearGradient
       inkscape:collect="always"
       id="linearGradient4544">
      <stop
         style="stop-color:#33ccda;stop-opacity:0.94509804"
         offset="0"
         id="stop4540" />
      <stop
         style="stop-color:#9bd7ce;stop-opacity:0.26635513"
         offset="1"
         id="stop4542" />
    </linearGradient>
    <radialGradient
       inkscape:collect="always"
       xlink:href="#linearGradient4544"
       id="radialGradient4546"
       cx="102.05357"
       cy="65.839287"
       fx="102.05357"
       fy="65.839287"
       r="96.761909"
       gradientTransform="matrix(1,0,0,0.41406247,0,38.577709)"
       gradientUnits="userSpaceOnUse" />
  </defs>
  <sodipodi:namedview
     id="base"
     pagecolor="#ffffff"
     bordercolor="#666666"
     borderopacity="1.0"
     inkscape:pageopacity="0.0"
     inkscape:pageshadow="2"
     inkscape:zoom="0.35"
     inkscape:cx="400"
     inkscape:cy="560"
     inkscape:document-units="mm"
     inkscape:current-layer="layer1"
     showgrid="false"
     inkscape:window-width="1366"
     inkscape:window-height="715"
     inkscape:window-x="-8"
     inkscape:window-y="-8"
     inkscape:window-maximized="1" />
  <metadata
     id="metadata4508">
    <rdf:RDF>
      <cc:Work
         rdf:about="">
        <dc:format>image/svg+xml</dc:format>
        <dc:type
           rdf:resource="http://purl.org/dc/dcmitype/StillImage" />
        <dc:title></dc:title>
      </cc:Work>
    </rdf:RDF>
  </metadata>
  <g
     inkscape:groupmode="layer"
     id="layer2"
     inkscape:label="Background Splash">
    <ellipse
       style="opacity:0.93599997;vector-effect:none;fill:url(#radialGradient4546);fill-opacity:1;stroke:none;stroke-width:0.46499997;stroke-linecap:butt;stroke-linejoin:miter;stroke-miterlimit:4;stroke-dasharray:none;stroke-dashoffset:0;stroke-opacity:1"
       id="path4538"
       cx="102.05357"
       cy="65.839287"
       rx="96.761909"
       ry="40.065475" />
  </g>
  <g
     inkscape:label="Layer 1"
     inkscape:groupmode="layer"
     id="layer1"
     transform="translate(0,-179)"
     style="display:inline">
    <flowRoot
       xml:space="preserve"
       id="flowRoot4513"
       style="font-style:normal;font-weight:normal;font-size:85.33333588px;line-height:1.25;font-family:sans-serif;letter-spacing:0px;word-spacing:0px;fill:#000000;fill-opacity:1;stroke:none"
       transform="matrix(0.26458333,0,0,0.26458333,0,179)"><flowRegion
         id="flowRegion4515"
         style="font-size:85.33333588px"><rect
           id="rect4517"
           width="740"
           height="248.57143"
           x="25.714285"
           y="94.555679"
           style="font-size:85.33333588px" /></flowRegion><flowPara
         id="flowPara4519"></flowPara></flowRoot>    <g
       aria-label="SUCCESS!!!"
       transform="matrix(0.26458333,0,0,0.26458333,2.2678571,200.16667)"
       style="font-style:normal;font-weight:normal;font-size:40px;line-height:1.25;font-family:sans-serif;letter-spacing:0px;word-spacing:0px;fill:#000000;fill-opacity:1;stroke:none"
       id="flowRoot4521">
      <path
         d="m 172.65625,150.78879 q 0,4.07812 -1.92188,8.0625 -1.875,3.98437 -5.29687,6.75 -3.75,3 -8.76563,4.6875 -4.96875,1.6875 -12,1.6875 -7.54687,0 -13.59375,-1.40625 -5.99999,-1.40625 -12.23437,-4.17188 v -11.625 H 119.5 q 5.29688,4.40625 12.23437,6.79688 6.9375,2.39062 13.03125,2.39062 8.625,0 13.40625,-3.23437 4.82813,-3.23438 4.82813,-8.625 0,-4.64063 -2.29688,-6.84375 -2.25,-2.20313 -6.89062,-3.42188 -3.51563,-0.9375 -7.64063,-1.54687 -4.07812,-0.60938 -8.67187,-1.54688 -9.28125,-1.96875 -13.78125,-6.70312 -4.45312,-4.78125 -4.45312,-12.42188 0,-8.76562 7.40625,-14.34375 7.40624,-5.624996 18.79687,-5.624996 7.35937,0 13.5,1.406246 6.14062,1.40625 10.875,3.46875 v 10.96875 h -0.65625 q -3.98438,-3.375 -10.5,-5.57812 -6.46875,-2.25 -13.26563,-2.25 -7.45312,0 -12,3.09375 -4.5,3.09375 -4.5,7.96875 0,4.35937 2.25,6.84375 2.25,2.48437 7.92188,3.79687 3,0.65625 8.53125,1.59375 5.53125,0.9375 9.375,1.92188 7.78125,2.0625 11.71875,6.23437 3.9375,4.17188 3.9375,11.67188 z"
         style="font-size:96px;text-align:center;text-anchor:middle"
         id="path4587" />
      <path
         d="m 240.10937,142.67941 q 0,7.59375 -1.6875,13.26563 -1.64062,5.625 -5.4375,9.375 -3.60937,3.5625 -8.4375,5.20312 -4.82812,1.64063 -11.25,1.64063 -6.5625,0 -11.4375,-1.73438 -4.875,-1.73437 -8.20312,-5.10937 -3.79688,-3.84375 -5.48438,-9.28125 -1.64062,-5.4375 -1.64062,-13.35938 v -41.76562 h 9.28125 v 42.23437 q 0,5.67188 0.75,8.95313 0.79687,3.28125 2.625,5.95312 2.0625,3.04688 5.57812,4.59375 3.5625,1.54688 8.53125,1.54688 5.01563,0 8.53125,-1.5 3.51563,-1.54688 5.625,-4.64063 1.82813,-2.67187 2.57813,-6.09375 0.79687,-3.46875 0.79687,-8.57812 v -42.46875 h 9.28125 z"
         style="font-size:96px;text-align:center;text-anchor:middle"
         id="path4589" />
      <path
         d="m 311.78125,165.64816 q -2.57813,1.125 -4.6875,2.10938 -2.0625,0.98437 -5.4375,2.0625 -2.85938,0.89062 -6.23438,1.5 -3.32812,0.65625 -7.35937,0.65625 -7.59375,0 -13.82813,-2.10938 -6.1875,-2.15625 -10.78125,-6.70312 -4.5,-4.45313 -7.03125,-11.29688 -2.53125,-6.89062 -2.53125,-15.98437 0,-8.625 2.4375,-15.42188 2.4375,-6.79687 7.03125,-11.48437 4.45313,-4.54688 10.73438,-6.9375 6.32812,-2.390626 14.01562,-2.390626 5.625,0 11.20313,1.359376 5.625,1.35937 12.46875,4.78125 v 11.01562 h -0.70313 q -5.76562,-4.82812 -11.4375,-7.03125 -5.67187,-2.20312 -12.14062,-2.20312 -5.29688,0 -9.5625,1.73437 -4.21875,1.6875 -7.54688,5.29688 -3.23437,3.51562 -5.0625,8.90625 -1.78125,5.34375 -1.78125,12.375 0,7.35937 1.96875,12.65625 2.01563,5.29687 5.15625,8.625 3.28125,3.46875 7.64063,5.15625 4.40625,1.64062 9.28125,1.64062 6.70312,0 12.5625,-2.29687 5.85937,-2.29688 10.96875,-6.89063 h 0.65625 z"
         style="font-size:96px;text-align:center;text-anchor:middle"
         id="path4591" />
      <path
         d="m 378.90625,165.64816 q -2.57813,1.125 -4.6875,2.10938 -2.0625,0.98437 -5.4375,2.0625 -2.85938,0.89062 -6.23438,1.5 -3.32812,0.65625 -7.35937,0.65625 -7.59375,0 -13.82813,-2.10938 -6.1875,-2.15625 -10.78125,-6.70312 -4.5,-4.45313 -7.03125,-11.29688 -2.53125,-6.89062 -2.53125,-15.98437 0,-8.625 2.4375,-15.42188 2.4375,-6.79687 7.03125,-11.48437 4.45313,-4.54688 10.73438,-6.9375 6.32812,-2.390626 14.01562,-2.390626 5.625,0 11.20313,1.359376 5.625,1.35937 12.46875,4.78125 v 11.01562 h -0.70313 q -5.76562,-4.82812 -11.4375,-7.03125 -5.67187,-2.20312 -12.14062,-2.20312 -5.29688,0 -9.5625,1.73437 -4.21875,1.6875 -7.54688,5.29688 -3.23437,3.51562 -5.0625,8.90625 -1.78125,5.34375 -1.78125,12.375 0,7.35937 1.96875,12.65625 2.01563,5.29687 5.15625,8.625 3.28125,3.46875 7.64063,5.15625 4.40625,1.64062 9.28125,1.64062 6.70312,0 12.5625,-2.29687 5.85937,-2.29688 10.96875,-6.89063 h 0.65625 z"
         style="font-size:96px;text-align:center;text-anchor:middle"
         id="path4593" />
      <path
         d="M 438.10937,170.71066 H 392.125 v -69.79687 h 45.98437 v 8.25 h -36.70312 v 19.125 h 36.70312 v 8.25 h -36.70312 v 25.92187 h 36.70312 z"
         style="font-size:96px;text-align:center;text-anchor:middle"
         id="path4595" />
      <path
         d="m 503.59375,150.78879 q 0,4.07812 -1.92188,8.0625 -1.875,3.98437 -5.29687,6.75 -3.75,3 -8.76563,4.6875 -4.96875,1.6875 -12,1.6875 -7.54687,0 -13.59375,-1.40625 -6,-1.40625 -12.23437,-4.17188 v -11.625 h 0.65625 q 5.29687,4.40625 12.23437,6.79688 6.9375,2.39062 13.03125,2.39062 8.625,0 13.40625,-3.23437 4.82813,-3.23438 4.82813,-8.625 0,-4.64063 -2.29688,-6.84375 -2.25,-2.20313 -6.89062,-3.42188 -3.51563,-0.9375 -7.64063,-1.54687 -4.07812,-0.60938 -8.67187,-1.54688 -9.28125,-1.96875 -13.78125,-6.70312 -4.45313,-4.78125 -4.45313,-12.42188 0,-8.76562 7.40625,-14.34375 7.40625,-5.624996 18.79688,-5.624996 7.35937,0 13.5,1.406246 6.14062,1.40625 10.875,3.46875 v 10.96875 H 500.125 q -3.98438,-3.375 -10.5,-5.57812 -6.46875,-2.25 -13.26563,-2.25 -7.45312,0 -12,3.09375 -4.5,3.09375 -4.5,7.96875 0,4.35937 2.25,6.84375 2.25,2.48437 7.92188,3.79687 3,0.65625 8.53125,1.59375 5.53125,0.9375 9.375,1.92188 7.78125,2.0625 11.71875,6.23437 3.9375,4.17188 3.9375,11.67188 z"
         style="font-size:96px;text-align:center;text-anchor:middle"
         id="path4597" />
      <path
         d="m 568.28125,150.78879 q 0,4.07812 -1.92188,8.0625 -1.875,3.98437 -5.29687,6.75 -3.75,3 -8.76563,4.6875 -4.96875,1.6875 -12,1.6875 -7.54687,0 -13.59375,-1.40625 -6,-1.40625 -12.23437,-4.17188 v -11.625 h 0.65625 q 5.29687,4.40625 12.23437,6.79688 6.9375,2.39062 13.03125,2.39062 8.625,0 13.40625,-3.23437 4.82813,-3.23438 4.82813,-8.625 0,-4.64063 -2.29688,-6.84375 -2.25,-2.20313 -6.89062,-3.42188 -3.51563,-0.9375 -7.64063,-1.54687 -4.07812,-0.60938 -8.67187,-1.54688 -9.28125,-1.96875 -13.78125,-6.70312 -4.45313,-4.78125 -4.45313,-12.42188 0,-8.76562 7.40625,-14.34375 7.40625,-5.624996 18.79688,-5.624996 7.35937,0 13.5,1.406246 6.14062,1.40625 10.875,3.46875 v 10.96875 h -0.65625 q -3.98438,-3.375 -10.5,-5.57812 -6.46875,-2.25 -13.26563,-2.25 -7.45312,0 -12,3.09375 -4.5,3.09375 -4.5,7.96875 0,4.35937 2.25,6.84375 2.25,2.48437 7.92188,3.79687 3,0.65625 8.53125,1.59375 5.53125,0.9375 9.375,1.92188 7.78125,2.0625 11.71875,6.23437 3.9375,4.17188 3.9375,11.67188 z"
         style="font-size:96px;text-align:center;text-anchor:middle"
         id="path4599" />
      <path
         d="m 597.95312,100.91379 -1.21875,50.57812 h -7.96875 l -1.3125,-50.57812 z m -0.46875,69.79687 h -9.5625 v -9.89062 h 9.5625 z"
         style="font-size:96px;text-align:center;text-anchor:middle"
         id="path4601" />
      <path
         d="m 635.82812,100.91379 -1.21875,50.57812 h -7.96875 l -1.3125,-50.57812 z m -0.46875,69.79687 h -9.5625 v -9.89062 h 9.5625 z"
         style="font-size:96px;text-align:center;text-anchor:middle"
         id="path4603" />
      <path
         d="m 673.70312,100.91379 -1.21875,50.57812 h -7.96875 l -1.3125,-50.57812 z m -0.46875,69.79687 h -9.5625 v -9.89062 h 9.5625 z"
         style="font-size:96px;text-align:center;text-anchor:middle"
         id="path4605" />
    </g>
    <g
       aria-label="Enjoy using Car2Park!"
       transform="matrix(0.26458333,0,0,0.26458333,24.190476,166.90476)"
       style="font-style:normal;font-weight:normal;font-size:40px;line-height:1.25;font-family:sans-serif;letter-spacing:0px;word-spacing:0px;fill:#000000;fill-opacity:1;stroke:none"
       id="flowRoot4529">
      <path
         d="M 117.35156,356.76274 H 98.191406 v -29.08203 h 19.160154 v 3.4375 h -15.29297 v 7.96875 h 15.29297 v 3.4375 h -15.29297 v 10.80078 h 15.29297 z"
         style=""
         id="path4548" />
      <path
         d="m 141.45312,356.76274 h -3.67187 v -12.42187 q 0,-1.50391 -0.17578,-2.8125 -0.17578,-1.32813 -0.64453,-2.07031 -0.48828,-0.82032 -1.40625,-1.21094 -0.91797,-0.41016 -2.38282,-0.41016 -1.5039,0 -3.14453,0.74219 -1.64062,0.74219 -3.14453,1.89453 v 16.28906 h -3.67187 v -21.8164 h 3.67187 v 2.42187 q 1.71875,-1.42578 3.55469,-2.22656 1.83594,-0.80078 3.76953,-0.80078 3.53516,0 5.39063,2.12891 1.85546,2.1289 1.85546,6.13281 z"
         style=""
         id="path4550" />
      <path
         d="m 155.32031,331.29399 h -4.14062 v -3.80859 h 4.14062 z m -0.23437,25.9961 q 0,3.82812 -1.95313,5.78125 -1.95312,1.95312 -5.23437,1.95312 -0.78125,0 -2.07032,-0.15625 -1.26953,-0.15625 -2.1289,-0.39062 v -3.4961 h 0.19531 q 0.54688,0.21485 1.46484,0.48829 0.9375,0.27343 1.81641,0.27343 1.40625,0 2.26563,-0.39062 0.85937,-0.39063 1.28906,-1.17188 0.42969,-0.78125 0.54687,-1.89453 0.13672,-1.09375 0.13672,-2.67578 v -17.57812 h -4.55078 v -3.08594 h 8.22266 z"
         style=""
         id="path4552" />
      <path
         d="m 180.86719,345.86431 q 0,5.33203 -2.73438,8.41797 -2.73437,3.08593 -7.32422,3.08593 -4.6289,0 -7.36328,-3.08593 -2.71484,-3.08594 -2.71484,-8.41797 0,-5.33203 2.71484,-8.41797 2.73438,-3.10547 7.36328,-3.10547 4.58985,0 7.32422,3.10547 2.73438,3.08594 2.73438,8.41797 z m -3.78907,0 q 0,-4.23828 -1.66015,-6.28907 -1.66016,-2.07031 -4.60938,-2.07031 -2.98828,0 -4.64843,2.07031 -1.64063,2.05079 -1.64063,6.28907 0,4.10156 1.66016,6.23047 1.66015,2.10937 4.6289,2.10937 2.92969,0 4.58985,-2.08984 1.67968,-2.10938 1.67968,-6.25 z"
         style=""
         id="path4554" />
      <path
         d="m 205.125,334.94634 -12.73438,29.86328 h -3.92578 l 4.0625,-9.10156 -8.6914,-20.76172 h 3.98437 l 6.69922,16.17187 6.75781,-16.17187 z"
         style=""
         id="path4556" />
      <path
         d="m 242.07812,356.76274 h -3.67187 v -2.42187 q -1.85547,1.46484 -3.55469,2.24609 -1.69922,0.78125 -3.75,0.78125 -3.4375,0 -5.35156,-2.08984 -1.91406,-2.10938 -1.91406,-6.17188 v -14.16015 h 3.67187 v 12.42187 q 0,1.66016 0.15625,2.85157 0.15625,1.17187 0.66406,2.01171 0.52735,0.85938 1.36719,1.25 0.83985,0.39063 2.44141,0.39063 1.42578,0 3.10547,-0.74219 1.69922,-0.74219 3.16406,-1.89453 v -16.28906 h 3.67187 z"
         style=""
         id="path4558" />
      <path
         d="m 264.89062,350.47368 q 0,2.98828 -2.48046,4.90235 -2.46094,1.91406 -6.73829,1.91406 -2.42187,0 -4.45312,-0.56641 -2.01172,-0.58594 -3.37891,-1.26953 v -4.12109 h 0.19532 q 1.73828,1.30859 3.86718,2.08984 2.12891,0.76172 4.08203,0.76172 2.42188,0 3.78907,-0.78125 1.36718,-0.78125 1.36718,-2.46094 0,-1.28906 -0.74218,-1.95312 -0.74219,-0.66407 -2.85157,-1.13282 -0.78125,-0.17578 -2.05078,-0.41015 -1.25,-0.23438 -2.28515,-0.50781 -2.8711,-0.76172 -4.08203,-2.22657 -1.19141,-1.48437 -1.19141,-3.63281 0,-1.34766 0.54687,-2.53906 0.56641,-1.19141 1.69922,-2.12891 1.09375,-0.91797 2.77344,-1.44531 1.69922,-0.54688 3.78906,-0.54688 1.95313,0 3.94532,0.48829 2.01171,0.46875 3.33984,1.15234 v 3.92578 h -0.19531 q -1.40625,-1.03516 -3.41797,-1.73828 -2.01172,-0.72266 -3.94531,-0.72266 -2.01172,0 -3.39844,0.78125 -1.38672,0.76172 -1.38672,2.28516 0,1.34766 0.83984,2.03125 0.82032,0.68359 2.65625,1.11328 1.01563,0.23438 2.26563,0.46875 1.26953,0.23438 2.10937,0.42969 2.5586,0.58594 3.94532,2.01172 1.38671,1.44531 1.38671,3.82812 z"
         style=""
         id="path4560" />
      <path
         d="m 274.10937,331.29399 h -4.14062 v -3.80859 h 4.14062 z m -0.23437,25.46875 h -3.67188 v -21.8164 h 3.67188 z"
         style=""
         id="path4562" />
      <path
         d="m 299.26562,356.76274 h -3.67187 v -12.42187 q 0,-1.50391 -0.17578,-2.8125 -0.17578,-1.32813 -0.64453,-2.07031 -0.48828,-0.82032 -1.40625,-1.21094 -0.91797,-0.41016 -2.38282,-0.41016 -1.5039,0 -3.14453,0.74219 -1.64062,0.74219 -3.14453,1.89453 v 16.28906 h -3.67187 v -21.8164 h 3.67187 v 2.42187 q 1.71875,-1.42578 3.55469,-2.22656 1.83594,-0.80078 3.76953,-0.80078 3.53516,0 5.39063,2.12891 1.85546,2.1289 1.85546,6.13281 z"
         style=""
         id="path4564" />
      <path
         d="m 324.03125,354.28228 q 0,5.54687 -2.51953,8.14453 -2.51953,2.59765 -7.75391,2.59765 -1.73828,0 -3.39844,-0.2539 -1.64062,-0.23438 -3.24218,-0.6836 v -3.75 h 0.19531 q 0.89844,0.35157 2.85156,0.85938 1.95313,0.52734 3.90625,0.52734 1.875,0 3.10547,-0.44922 1.23047,-0.44922 1.91406,-1.25 0.6836,-0.76172 0.97657,-1.83593 0.29296,-1.07422 0.29296,-2.40235 v -1.99219 q -1.66015,1.32813 -3.18359,1.99219 -1.50391,0.64453 -3.84766,0.64453 -3.90625,0 -6.21093,-2.8125 -2.28516,-2.83203 -2.28516,-7.96875 0,-2.8125 0.78125,-4.84375 0.80078,-2.05078 2.16797,-3.53515 1.26953,-1.38672 3.08594,-2.14844 1.8164,-0.78125 3.61328,-0.78125 1.89453,0 3.16406,0.39062 1.28906,0.3711 2.71484,1.15235 l 0.23438,-0.9375 h 3.4375 z m -3.67188,-3.51563 v -11.89453 q -1.46484,-0.66406 -2.73437,-0.9375 -1.25,-0.29297 -2.5,-0.29297 -3.02734,0 -4.76563,2.03125 -1.73828,2.03125 -1.73828,5.89844 0,3.67187 1.28907,5.5664 1.28906,1.89454 4.27734,1.89454 1.60156,0 3.20312,-0.60547 1.6211,-0.625 2.96875,-1.66016 z"
         style=""
         id="path4566" />
      <path
         d="m 368.07422,354.65337 q -1.07422,0.46875 -1.95313,0.87891 -0.85937,0.41015 -2.26562,0.85937 -1.19141,0.37109 -2.59766,0.625 -1.38672,0.27344 -3.0664,0.27344 -3.16407,0 -5.76172,-0.87891 -2.57813,-0.89844 -4.49219,-2.79297 -1.875,-1.85547 -2.92969,-4.70703 -1.05469,-2.87109 -1.05469,-6.66015 0,-3.59375 1.01563,-6.42579 1.01562,-2.83203 2.92969,-4.78515 1.85547,-1.89453 4.47265,-2.89063 2.63672,-0.99609 5.83985,-0.99609 2.34375,0 4.66797,0.56641 2.34375,0.5664 5.19531,1.99218 v 4.58985 h -0.29297 q -2.40234,-2.01172 -4.76563,-2.92969 -2.36328,-0.91797 -5.05859,-0.91797 -2.20703,0 -3.98437,0.72266 -1.75782,0.70312 -3.14454,2.20703 -1.34765,1.46484 -2.10937,3.71094 -0.74219,2.22656 -0.74219,5.15625 0,3.0664 0.82031,5.27343 0.83985,2.20703 2.14844,3.59375 1.36719,1.44532 3.1836,2.14844 1.83593,0.68359 3.86718,0.68359 2.79297,0 5.23438,-0.95703 2.4414,-0.95703 4.57031,-2.87109 h 0.27344 z"
         style=""
         id="path4568" />
      <path
         d="m 390.24219,356.76274 h -3.65235 v -2.32421 q -0.48828,0.33203 -1.32812,0.9375 -0.82031,0.58593 -1.60156,0.9375 -0.91797,0.44921 -2.10938,0.74218 -1.19141,0.3125 -2.79297,0.3125 -2.94922,0 -5,-1.95312 -2.05078,-1.95313 -2.05078,-4.98047 0,-2.48047 1.05469,-4.00391 1.07422,-1.54297 3.04687,-2.42187 1.99219,-0.87891 4.78516,-1.19141 2.79297,-0.3125 5.99609,-0.46875 v -0.5664 q 0,-1.25 -0.44922,-2.07032 -0.42968,-0.82031 -1.25,-1.28906 -0.78125,-0.44922 -1.875,-0.60547 -1.09375,-0.15625 -2.28515,-0.15625 -1.44531,0 -3.22266,0.39063 -1.77734,0.37109 -3.67187,1.09375 h -0.19532 v -3.73047 q 1.07422,-0.29297 3.10547,-0.64453 2.03125,-0.35157 4.00391,-0.35157 2.30469,0 4.00391,0.39063 1.71875,0.37109 2.96875,1.28906 1.23046,0.89844 1.875,2.32422 0.64453,1.42578 0.64453,3.53516 z m -3.65235,-5.37109 v -6.07422 q -1.67968,0.0977 -3.96484,0.29297 -2.26563,0.19531 -3.59375,0.56641 -1.58203,0.44922 -2.55859,1.40625 -0.97657,0.9375 -0.97657,2.59765 0,1.875 1.13282,2.83203 1.13281,0.9375 3.45703,0.9375 1.93359,0 3.53515,-0.74218 1.60157,-0.76172 2.96875,-1.81641 z"
         style=""
         id="path4570" />
      <path
         d="m 410.96484,338.95024 h -0.19531 q -0.82031,-0.19531 -1.60156,-0.27343 -0.76172,-0.0977 -1.81641,-0.0977 -1.69922,0 -3.28125,0.76172 -1.58203,0.74219 -3.04687,1.93359 v 15.48828 h -3.67188 v -21.8164 h 3.67188 v 3.22265 q 2.1875,-1.75781 3.84765,-2.48046 1.67969,-0.74219 3.41797,-0.74219 0.95703,0 1.38672,0.0586 0.42969,0.0391 1.28906,0.17578 z"
         style=""
         id="path4572" />
      <path
         d="m 433.67969,356.76274 h -19.6875 v -4.08203 q 2.05078,-1.75781 4.10156,-3.51562 2.07031,-1.75781 3.84766,-3.4961 3.75,-3.63281 5.13671,-5.76171 1.38672,-2.14844 1.38672,-4.62891 0,-2.26563 -1.5039,-3.53516 -1.48438,-1.28906 -4.16016,-1.28906 -1.77734,0 -3.84766,0.625 -2.07031,0.625 -4.04296,1.91406 h -0.19532 v -4.10156 q 1.38672,-0.68359 3.69141,-1.25 2.32422,-0.56641 4.49219,-0.56641 4.47265,0 7.01172,2.16797 2.53906,2.14844 2.53906,5.83985 0,1.66015 -0.42969,3.10547 -0.41016,1.42578 -1.23047,2.71484 -0.76172,1.21094 -1.79687,2.38281 -1.01563,1.17188 -2.48047,2.59766 -2.08985,2.05078 -4.31641,3.98437 -2.22656,1.91407 -4.16015,3.55469 h 15.64453 z"
         style=""
         id="path4574" />
      <path
         d="m 459.24609,336.46978 q 0,1.93359 -0.68359,3.59375 -0.66406,1.64062 -1.875,2.85156 -1.50391,1.5039 -3.55469,2.26562 -2.05078,0.74219 -5.17578,0.74219 h -3.86719 v 10.83984 h -3.86718 v -29.08203 h 7.89062 q 2.61719,0 4.43359,0.44922 1.81641,0.42969 3.22266,1.36719 1.66016,1.11328 2.55859,2.77344 0.91797,1.66015 0.91797,4.19922 z m -4.02343,0.0976 q 0,-1.5039 -0.52735,-2.61719 -0.52734,-1.11328 -1.60156,-1.8164 -0.9375,-0.60547 -2.14844,-0.85938 -1.1914,-0.27343 -3.02734,-0.27343 h -3.82813 v 11.62109 h 3.26172 q 2.34375,0 3.8086,-0.41016 1.46484,-0.42968 2.38281,-1.34765 0.91797,-0.9375 1.28906,-1.97266 0.39063,-1.03516 0.39063,-2.32422 z"
         style=""
         id="path4576" />
      <path
         d="m 480.08594,356.76274 h -3.65235 v -2.32421 q -0.48828,0.33203 -1.32812,0.9375 -0.82031,0.58593 -1.60156,0.9375 -0.91797,0.44921 -2.10938,0.74218 -1.19141,0.3125 -2.79297,0.3125 -2.94922,0 -5,-1.95312 -2.05078,-1.95313 -2.05078,-4.98047 0,-2.48047 1.05469,-4.00391 1.07422,-1.54297 3.04687,-2.42187 1.99219,-0.87891 4.78516,-1.19141 2.79297,-0.3125 5.99609,-0.46875 v -0.5664 q 0,-1.25 -0.44922,-2.07032 -0.42968,-0.82031 -1.25,-1.28906 -0.78125,-0.44922 -1.875,-0.60547 -1.09375,-0.15625 -2.28515,-0.15625 -1.44531,0 -3.22266,0.39063 -1.77734,0.37109 -3.67187,1.09375 h -0.19532 v -3.73047 q 1.07422,-0.29297 3.10547,-0.64453 2.03125,-0.35157 4.00391,-0.35157 2.30469,0 4.00391,0.39063 1.71875,0.37109 2.96875,1.28906 1.23046,0.89844 1.875,2.32422 0.64453,1.42578 0.64453,3.53516 z m -3.65235,-5.37109 v -6.07422 q -1.67968,0.0977 -3.96484,0.29297 -2.26563,0.19531 -3.59375,0.56641 -1.58203,0.44922 -2.55859,1.40625 -0.97657,0.9375 -0.97657,2.59765 0,1.875 1.13282,2.83203 1.13281,0.9375 3.45703,0.9375 1.93359,0 3.53515,-0.74218 1.60157,-0.76172 2.96875,-1.81641 z"
         style=""
         id="path4578" />
      <path
         d="m 500.80859,338.95024 h -0.19531 q -0.82031,-0.19531 -1.60156,-0.27343 -0.76172,-0.0977 -1.81641,-0.0977 -1.69922,0 -3.28125,0.76172 -1.58203,0.74219 -3.04687,1.93359 v 15.48828 h -3.67188 v -21.8164 h 3.67188 v 3.22265 q 2.1875,-1.75781 3.84765,-2.48046 1.67969,-0.74219 3.41797,-0.74219 0.95703,0 1.38672,0.0586 0.42969,0.0391 1.28906,0.17578 z"
         style=""
         id="path4580" />
      <path
         d="m 524.10937,356.76274 h -4.84375 l -8.75,-9.55078 -2.38281,2.26563 v 7.28515 h -3.67187 v -30.39062 h 3.67187 v 19.49219 l 10.60547,-10.91797 h 4.62891 l -10.13672,10.07812 z"
         style=""
         id="path4582" />
      <path
         d="m 534.42187,327.68071 -0.50781,21.07422 h -3.32031 l -0.54688,-21.07422 z m -0.19531,29.08203 h -3.98437 v -4.12109 h 3.98437 z"
         style=""
         id="path4584" />
    </g>
  </g>
</svg>
